# Blender v2.79 (sub 0) OBJ File: ''
# www.blender.org
mtllib sky.mtl
o Sphere
v 0.000002 -5.555701 -8.314691
v 1.622117 -5.555701 -8.154935
v 1.802399 -3.826832 -9.061278
v 0.000000 -3.826832 -9.238793
v -0.000001 7.071069 -7.071069
v 1.379497 7.071069 -6.935200
v 1.083864 8.314697 -5.448952
v -0.000001 8.314697 -5.555703
v 0.000001 -7.071067 -7.071067
v 1.379497 -7.071067 -6.935202
v -0.000001 5.555704 -8.314697
v 1.622117 5.555704 -8.154933
v -0.000001 -8.314695 -5.555706
v 1.083863 -8.314695 -5.448954
v -0.000001 3.826835 -9.238796
v 1.802399 3.826835 -9.061274
v 0.000000 -9.238795 -3.826833
v 0.746578 -9.238795 -3.753304
v -0.000001 1.950905 -9.807855
v 1.913417 1.950905 -9.619399
v -0.000001 -9.807853 -1.950903
v 0.380602 -9.807853 -1.913419
v -0.000001 0.000003 -10.000002
v 1.950903 0.000003 -9.807855
v -0.000001 9.807853 -1.950903
v 0.380602 9.807853 -1.913417
v -0.000003 10.000000 0.000006
v -0.000001 -10.000000 -0.000001
v -0.000001 -1.950900 -9.807855
v 1.913417 -1.950900 -9.619399
v -0.000001 9.238796 -3.826835
v 0.746578 9.238796 -3.753304
v 3.535534 -3.826832 -8.535537
v 3.753303 -1.950901 -9.061275
v 2.126076 8.314697 -5.132800
v 1.464466 9.238796 -3.535535
v 3.181896 -5.555701 -7.681780
v 2.705981 7.071069 -6.532815
v 2.705981 -7.071067 -6.532817
v 3.181896 5.555704 -7.681778
v 2.126075 -8.314695 -5.132802
v 3.535533 3.826835 -8.535534
v 1.464466 -9.238795 -3.535535
v 3.753303 1.950904 -9.061275
v 0.746578 -9.807853 -1.802401
v 3.826834 0.000003 -9.238796
v 0.746579 9.807853 -1.802399
v 2.126075 -9.238795 -3.181897
v 3.086583 -8.314695 -4.619401
v 5.448951 1.950904 -8.154932
v 5.132800 3.826835 -7.681777
v 1.083863 -9.807853 -1.622118
v 5.555703 0.000002 -8.314696
v 1.083865 9.807853 -1.622116
v 5.448951 -1.950901 -8.154932
v 2.126076 9.238796 -3.181897
v 5.132800 -3.826832 -7.681779
v 3.086583 8.314697 -4.619398
v 4.619398 -5.555701 -6.913419
v 3.928475 7.071069 -5.879378
v 3.928475 -7.071067 -5.879380
v 4.619398 5.555703 -6.913417
v 3.928476 8.314697 -3.928473
v 2.705982 9.238795 -2.705980
v 5.879379 -5.555701 -5.879379
v 6.532815 -3.826832 -6.532816
v 5.000000 7.071069 -4.999999
v 5.000000 -7.071067 -5.000001
v 5.879379 5.555703 -5.879377
v 3.928475 -8.314695 -3.928476
v 6.532815 3.826835 -6.532815
v 2.705981 -9.238796 -2.705982
v 6.935200 1.950904 -6.935198
v 1.379496 -9.807853 -1.379498
v 7.071069 0.000002 -7.071068
v 1.379498 9.807853 -1.379496
v 6.935200 -1.950901 -6.935199
v 8.154932 1.950904 -5.448949
v 7.681778 3.826835 -5.132800
v 1.622116 -9.807853 -1.083865
v 3.181897 -9.238796 -2.126076
v 8.314697 0.000002 -5.555702
v 1.622118 9.807853 -1.083862
v 8.154932 -1.950901 -5.448950
v 3.181898 9.238795 -2.126075
v 7.681778 -3.826832 -5.132801
v 4.619399 8.314697 -3.086581
v 6.913418 -5.555701 -4.619399
v 5.879379 7.071068 -3.928474
v 5.879379 -7.071067 -3.928476
v 6.913418 5.555703 -4.619397
v 4.619398 -8.314695 -3.086583
v 7.681779 -5.555702 -3.181897
v 8.535534 -3.826833 -3.535535
v 6.532816 7.071068 -2.705979
v 5.132801 8.314696 -2.126074
v 6.532816 -7.071067 -2.705981
v 7.681779 5.555703 -3.181895
v 5.132800 -8.314696 -2.126076
v 8.535534 3.826834 -3.535533
v 3.535534 -9.238796 -1.464468
v 9.061274 1.950904 -3.753301
v 1.802399 -9.807853 -0.746579
v 9.238796 0.000002 -3.826834
v 1.802402 9.807853 -0.746576
v 9.061274 -1.950901 -3.753301
v 3.535536 9.238795 -1.464464
v 1.913417 -9.807853 -0.380603
v 3.753303 -9.238796 -0.746579
v 9.807854 0.000001 -1.950902
v 9.619397 1.950903 -1.913415
v 1.913419 9.807853 -0.380599
v 9.619397 -1.950902 -1.913415
v 3.753304 9.238795 -0.746576
v 9.061275 -3.826833 -1.802401
v 5.448952 8.314696 -1.083862
v 8.154932 -5.555702 -1.622117
v 6.935200 7.071068 -1.379495
v 6.935200 -7.071068 -1.379497
v 8.154932 5.555703 -1.622115
v 5.448952 -8.314696 -1.083863
v 9.061275 3.826834 -1.802398
v 7.071068 -7.071068 -0.000000
v 8.314696 -5.555702 0.000001
v 8.314696 5.555702 0.000003
v 7.071068 7.071068 0.000002
v 5.555702 -8.314696 0.000001
v 9.238795 3.826834 0.000002
v 3.826834 -9.238796 -0.000001
v 9.807852 1.950903 0.000002
v 1.950903 -9.807853 -0.000001
v 10.000001 0.000001 0.000002
v 1.950905 9.807853 0.000003
v 9.807852 -1.950902 0.000002
v 3.826836 9.238795 0.000003
v 9.238795 -3.826833 -0.000001
v 5.555704 8.314696 0.000002
v 1.913419 9.807853 0.380606
v 1.913417 -9.807853 0.380602
v 9.619396 -1.950902 1.913419
v 9.807854 0.000001 1.950906
v 3.753304 9.238795 0.746581
v 9.061275 -3.826833 1.802399
v 5.448952 8.314696 1.083867
v 8.154932 -5.555703 1.622117
v 6.935200 7.071068 1.379499
v 6.935200 -7.071068 1.379497
v 8.154932 5.555702 1.622119
v 5.448951 -8.314696 1.083865
v 9.061275 3.826834 1.802402
v 3.753303 -9.238796 0.746579
v 9.619396 1.950903 1.913419
v 7.681777 5.555702 3.181900
v 6.532815 7.071067 2.705983
v 5.132799 -8.314696 2.126076
v 6.532815 -7.071068 2.705981
v 8.535534 3.826833 3.535536
v 3.535533 -9.238796 1.464466
v 9.061272 1.950902 3.753304
v 1.802399 -9.807853 0.746578
v 9.238795 0.000000 3.826837
v 1.802401 9.807853 0.746583
v 9.061272 -1.950903 3.753304
v 3.535535 9.238795 1.464470
v 8.535534 -3.826833 3.535534
v 5.132800 8.314696 2.126078
v 7.681777 -5.555703 3.181898
v 8.154929 -1.950903 5.448952
v 8.314696 0.000000 5.555705
v 3.181897 9.238795 2.126079
v 1.622118 9.807853 1.083869
v 7.681777 -3.826834 5.132801
v 4.619398 8.314695 3.086586
v 6.913416 -5.555703 4.619399
v 5.879378 7.071067 3.928478
v 5.879378 -7.071068 3.928476
v 6.913416 5.555701 4.619401
v 4.619397 -8.314697 3.086584
v 7.681777 3.826833 5.132802
v 3.181896 -9.238796 2.126076
v 8.154929 1.950902 5.448953
v 1.622116 -9.807853 1.083863
v 3.928474 -8.314697 3.928476
v 5.000000 -7.071069 5.000001
v 6.532815 3.826833 6.532816
v 5.879376 5.555701 5.879381
v 2.705980 -9.238796 2.705981
v 6.935197 1.950902 6.935201
v 1.379496 -9.807853 1.379496
v 7.071067 -0.000000 7.071071
v 1.379498 9.807853 1.379502
v 6.935197 -1.950903 6.935200
v 2.705981 9.238795 2.705984
v 6.532815 -3.826834 6.532815
v 3.928475 8.314695 3.928478
v 5.879376 -5.555703 5.879379
v 5.000000 7.071067 5.000003
v 2.126076 9.238794 3.181901
v 1.083864 9.807853 1.622122
v 5.132800 -3.826834 7.681778
v 5.448949 -1.950903 8.154932
v 3.086582 8.314695 4.619401
v 4.619396 -5.555703 6.913418
v 3.928474 7.071067 5.879381
v 3.928474 -7.071069 5.879379
v 4.619396 5.555701 6.913420
v 3.086581 -8.314697 4.619398
v 5.132800 3.826833 7.681779
v 2.126074 -9.238797 3.181897
v 5.448949 1.950902 8.154932
v 1.083863 -9.807853 1.622116
v 5.555701 -0.000000 8.314699
v 3.535533 3.826833 8.535537
v 3.181894 5.555701 7.681780
v 1.464465 -9.238797 3.535534
v 2.126074 -8.314697 5.132800
v 3.753300 1.950902 9.061275
v 0.746578 -9.807853 1.802399
v 3.826833 -0.000001 9.238798
v 0.746578 9.807853 1.802405
v 3.753300 -1.950903 9.061275
v 1.464466 9.238794 3.535538
v 3.535533 -3.826834 8.535535
v 2.126075 8.314695 5.132803
v 3.181894 -5.555704 7.681778
v 2.705979 7.071067 6.532817
v 2.705979 -7.071069 6.532815
v 1.802399 -3.826834 9.061274
v 1.913415 -1.950904 9.619397
v 1.083863 8.314695 5.448956
v 0.746578 9.238794 3.753306
v 1.622115 -5.555704 8.154931
v 1.379496 7.071067 6.935202
v 1.379496 -7.071069 6.935200
v 1.622115 5.555701 8.154933
v 1.083863 -8.314697 5.448951
v 1.802399 3.826833 9.061275
v 0.746578 -9.238797 3.753303
v 1.913415 1.950902 9.619397
v 0.380601 -9.807853 1.913417
v 1.950902 -0.000001 9.807856
v 0.380602 9.807853 1.913423
v -0.000001 -9.238797 3.826833
v -0.000001 -8.314697 5.555702
v -0.000002 1.950902 9.807852
v 0.000000 3.826833 9.238798
v -0.000001 -9.807853 1.950902
v -0.000002 -0.000001 10.000001
v -0.000001 9.807853 1.950909
v -0.000002 -1.950904 9.807852
v -0.000001 9.238794 3.826838
v 0.000000 -3.826834 9.238796
v -0.000001 8.314695 5.555707
v -0.000002 -5.555704 8.314694
v -0.000001 7.071067 7.071070
v -0.000001 -7.071069 7.071068
v -0.000002 5.555701 8.314696
v -1.622118 -5.555704 8.154929
v -1.802400 -3.826834 9.061274
v -1.379498 7.071067 6.935201
v -1.083865 8.314695 5.448956
v -1.379498 -7.071069 6.935199
v -1.622118 5.555701 8.154931
v -1.083865 -8.314697 5.448951
v -1.802400 3.826833 9.061275
v -0.746579 -9.238797 3.753303
v -1.913419 1.950902 9.619396
v -0.380603 -9.807853 1.913417
v -1.950905 -0.000001 9.807855
v -0.380604 9.807853 1.913422
v -1.913419 -1.950904 9.619396
v -0.746579 9.238794 3.753306
v -0.746579 -9.807853 1.802399
v -1.464467 -9.238797 3.535532
v -3.826837 -0.000001 9.238796
v -3.753304 1.950902 9.061274
v -0.746580 9.807853 1.802404
v -3.753304 -1.950903 9.061274
v -1.464467 9.238794 3.535537
v -3.535534 -3.826834 8.535535
v -2.126076 8.314695 5.132803
v -3.181898 -5.555704 7.681775
v -2.705982 7.071067 6.532817
v -2.705982 -7.071069 6.532815
v -3.181898 5.555701 7.681777
v -2.126076 -8.314697 5.132799
v -3.535534 3.826833 8.535537
v -3.928476 7.071067 5.879380
v -3.086584 8.314695 4.619401
v -3.928476 -7.071069 5.879378
v -4.619398 -5.555703 6.913414
v -4.619398 5.555701 6.913416
v -3.086584 -8.314697 4.619397
v -5.132800 3.826833 7.681779
v -2.126076 -9.238797 3.181895
v -5.448952 1.950902 8.154930
v -1.083864 -9.807853 1.622116
v -5.555705 -0.000000 8.314696
v -1.083866 9.807853 1.622120
v -5.448952 -1.950903 8.154930
v -2.126076 9.238794 3.181900
v -5.132800 -3.826834 7.681778
v -7.071070 -0.000000 7.071068
v -6.935199 1.950902 6.935197
v -1.379499 9.807853 1.379501
v -1.379498 -9.807853 1.379496
v -6.935199 -1.950903 6.935196
v -2.705982 9.238795 2.705983
v -6.532815 -3.826834 6.532815
v -3.928476 8.314695 3.928478
v -5.879378 -5.555703 5.879375
v -5.000001 7.071067 5.000001
v -5.000001 -7.071069 4.999999
v -5.879378 5.555701 5.879377
v -3.928475 -8.314697 3.928473
v -6.532815 3.826833 6.532816
v -2.705981 -9.238796 2.705980
v -5.879379 -7.071068 3.928474
v -6.913416 -5.555703 4.619395
v -6.913416 5.555701 4.619397
v -5.879379 7.071067 3.928476
v -4.619398 -8.314697 3.086581
v -7.681778 3.826833 5.132802
v -3.181897 -9.238796 2.126074
v -8.154930 1.950902 5.448949
v -1.622117 -9.807853 1.083863
v -8.314697 0.000000 5.555702
v -1.622119 9.807853 1.083868
v -8.154930 -1.950903 5.448948
v -3.181898 9.238795 2.126077
v -7.681778 -3.826834 5.132801
v -4.619399 8.314695 3.086586
v -1.802402 9.807853 0.746582
v -1.802400 -9.807853 0.746577
v -9.061273 -1.950903 3.753300
v -9.238796 0.000000 3.826833
v -3.535535 9.238795 1.464469
v -8.535535 -3.826833 3.535534
v -5.132801 8.314696 2.126077
v -7.681776 -5.555703 3.181894
v -6.532816 7.071067 2.705982
v -6.532816 -7.071068 2.705980
v -7.681776 5.555702 3.181896
v -5.132800 -8.314696 2.126075
v -8.535535 3.826833 3.535536
v -3.535534 -9.238796 1.464464
v -9.061273 1.950902 3.753300
v -8.154929 5.555702 1.622117
v -6.935200 7.071068 1.379498
v -5.448951 -8.314696 1.083863
v -6.935200 -7.071068 1.379496
v -9.061275 3.826834 1.802402
v -3.753302 -9.238796 0.746578
v -9.619395 1.950903 1.913416
v -1.913417 -9.807853 0.380602
v -9.807853 0.000001 1.950903
v -1.913420 9.807853 0.380606
v -9.619395 -1.950902 1.913416
v -3.753303 9.238795 0.746580
v -9.061275 -3.826833 1.802400
v -5.448952 8.314696 1.083866
v -8.154929 -5.555703 1.622115
v -9.807850 -1.950902 -0.000001
v -9.999999 0.000001 0.000000
v -3.826835 9.238795 0.000003
v -1.950905 9.807853 0.000003
v -9.238795 -3.826833 0.000000
v -5.555703 8.314696 0.000002
v -8.314693 -5.555702 -0.000001
v -7.071068 7.071068 0.000001
v -7.071068 -7.071068 -0.000001
v -8.314693 5.555702 0.000001
v -5.555702 -8.314696 -0.000000
v -9.238795 3.826834 0.000002
v -3.826834 -9.238796 -0.000001
v -9.807850 1.950903 -0.000001
v -1.950903 -9.807853 -0.000001
v -5.448951 -8.314696 -1.083864
v -6.935200 -7.071068 -1.379498
v -9.061275 3.826834 -1.802397
v -8.154928 5.555703 -1.622115
v -3.753302 -9.238796 -0.746579
v -9.619393 1.950903 -1.913417
v -1.913417 -9.807853 -0.380603
v -9.807852 0.000001 -1.950903
v -1.913419 9.807853 -0.380599
v -9.619393 -1.950902 -1.913417
v -3.753303 9.238795 -0.746576
v -9.061275 -3.826833 -1.802399
v -5.448952 8.314696 -1.083862
v -8.154928 -5.555702 -1.622117
v -6.935200 7.071068 -1.379496
v -8.535534 -3.826833 -3.535533
v -9.061270 -1.950901 -3.753302
v -5.132800 8.314696 -2.126073
v -3.535534 9.238795 -1.464463
v -7.681774 -5.555702 -3.181896
v -6.532815 7.071068 -2.705979
v -6.532815 -7.071067 -2.705981
v -7.681774 5.555703 -3.181894
v -5.132799 -8.314696 -2.126076
v -8.535534 3.826834 -3.535531
v -3.535533 -9.238796 -1.464467
v -9.061270 1.950904 -3.753302
v -1.802400 -9.807853 -0.746579
v -9.238793 0.000002 -3.826834
v -1.802402 9.807853 -0.746576
v -3.181896 -9.238796 -2.126074
v -4.619396 -8.314695 -3.086582
v -8.154927 1.950904 -5.448948
v -7.681777 3.826835 -5.132798
v -1.622117 -9.807853 -1.083863
v -8.314693 0.000002 -5.555701
v -1.622119 9.807853 -1.083861
v -8.154927 -1.950901 -5.448949
v -3.181897 9.238795 -2.126073
v -7.681777 -3.826832 -5.132799
v -4.619398 8.314697 -3.086580
v -6.913414 -5.555701 -4.619397
v -5.879378 7.071068 -3.928473
v -5.879378 -7.071067 -3.928475
v -6.913414 5.555703 -4.619395
v -3.928474 8.314697 -3.928472
v -2.705981 9.238795 -2.705978
v -5.879374 -5.555701 -5.879376
v -6.532815 -3.826832 -6.532814
v -5.000000 7.071069 -4.999999
v -5.000000 -7.071067 -5.000001
v -5.879374 5.555703 -5.879374
v -3.928473 -8.314695 -3.928474
v -6.532815 3.826835 -6.532813
v -2.705980 -9.238796 -2.705979
v -6.935195 1.950904 -6.935195
v -1.379497 -9.807853 -1.379497
v -7.071065 0.000002 -7.071066
v -1.379498 9.807853 -1.379496
v -6.935195 -1.950901 -6.935196
v -5.448947 1.950904 -8.154926
v -5.132800 3.826835 -7.681775
v -1.083864 -9.807853 -1.622117
v -2.126075 -9.238795 -3.181895
v -5.555699 0.000002 -8.314693
v -1.083865 9.807853 -1.622114
v -5.448947 -1.950901 -8.154926
v -2.126075 9.238796 -3.181893
v -5.132800 -3.826832 -7.681776
v -3.086582 8.314697 -4.619395
v -4.619394 -5.555701 -6.913415
v -3.928474 7.071069 -5.879375
v -3.928474 -7.071067 -5.879377
v -4.619394 5.555703 -6.913413
v -3.086582 -8.314695 -4.619396
v -3.181893 -5.555701 -7.681774
v -3.535534 -3.826832 -8.535532
v -2.705980 7.071069 -6.532812
v -2.126075 8.314697 -5.132795
v -2.705980 -7.071067 -6.532814
v -3.181893 5.555704 -7.681772
v -2.126074 -8.314695 -5.132797
v -3.535534 3.826835 -8.535530
v -1.464466 -9.238795 -3.535532
v -3.753299 1.950904 -9.061268
v -0.746579 -9.807853 -1.802400
v -3.826832 0.000003 -9.238791
v -0.746580 9.807853 -1.802398
v -3.753299 -1.950901 -9.061268
v -1.464466 9.238796 -3.535531
v -0.380603 -9.807853 -1.913417
v -0.746578 -9.238795 -3.753301
v -1.950901 0.000003 -9.807847
v -1.913414 1.950905 -9.619390
v -0.380603 9.807853 -1.913415
v -1.913414 -1.950900 -9.619390
v -0.746578 9.238796 -3.753299
v -1.802400 -3.826832 -9.061273
v -1.083863 8.314697 -5.448946
v -1.622114 -5.555701 -8.154926
v -1.379496 7.071069 -6.935196
v -1.379496 -7.071067 -6.935198
v -1.622114 5.555704 -8.154924
v -1.083863 -8.314695 -5.448948
v -1.802400 3.826835 -9.061271
vt 0.718750 0.312500
vt 0.750000 0.375000
vt 0.750000 0.312500
vt 0.750000 0.750000
vt 0.718750 0.812500
vt 0.750000 0.812500
vt 0.718750 0.250000
vt 0.750000 0.250000
vt 0.718750 0.687500
vt 0.750000 0.687500
vt 0.718750 0.187500
vt 0.750000 0.187500
vt 0.718750 0.625000
vt 0.750000 0.625000
vt 0.718750 0.125000
vt 0.750000 0.125000
vt 0.718750 0.562500
vt 0.750000 0.562500
vt 0.718750 0.062500
vt 0.750000 0.062500
vt 0.718750 0.500000
vt 0.750000 0.500000
vt 0.750000 0.937500
vt 0.718750 0.937500
vt 0.734375 1.000000
vt 0.734375 0.000000
vt 0.750000 0.437500
vt 0.750000 0.875000
vt 0.718750 0.375000
vt 0.718750 0.875000
vt 0.687500 0.375000
vt 0.718750 0.437500
vt 0.687500 0.812500
vt 0.687500 0.750000
vt 0.718750 0.750000
vt 0.687500 0.312500
vt 0.687500 0.687500
vt 0.687500 0.250000
vt 0.687500 0.187500
vt 0.687500 0.625000
vt 0.687500 0.125000
vt 0.687500 0.500000
vt 0.687500 0.937500
vt 0.703125 1.000000
vt 0.703125 0.000000
vt 0.687500 0.062500
vt 0.687500 0.437500
vt 0.687500 0.875000
vt 0.656250 0.125000
vt 0.687500 0.562500
vt 0.656250 0.625000
vt 0.656250 0.500000
vt 0.656250 0.937500
vt 0.671875 1.000000
vt 0.671875 0.000000
vt 0.656250 0.062500
vt 0.656250 0.875000
vt 0.656250 0.375000
vt 0.656250 0.750000
vt 0.656250 0.312500
vt 0.656250 0.687500
vt 0.656250 0.187500
vt 0.656250 0.812500
vt 0.625000 0.875000
vt 0.625000 0.375000
vt 0.625000 0.750000
vt 0.625000 0.250000
vt 0.656250 0.250000
vt 0.625000 0.687500
vt 0.625000 0.625000
vt 0.625000 0.125000
vt 0.625000 0.562500
vt 0.656250 0.562500
vt 0.625000 0.062500
vt 0.625000 0.937500
vt 0.640625 1.000000
vt 0.640625 0.000000
vt 0.625000 0.437500
vt 0.656250 0.437500
vt 0.593750 0.625000
vt 0.593750 0.062500
vt 0.593750 0.500000
vt 0.625000 0.500000
vt 0.593750 0.937500
vt 0.609375 1.000000
vt 0.609375 0.000000
vt 0.593750 0.437500
vt 0.593750 0.875000
vt 0.593750 0.375000
vt 0.625000 0.812500
vt 0.625000 0.312500
vt 0.593750 0.750000
vt 0.593750 0.250000
vt 0.625000 0.187500
vt 0.593750 0.125000
vt 0.593750 0.312500
vt 0.562500 0.375000
vt 0.562500 0.750000
vt 0.593750 0.812500
vt 0.562500 0.312500
vt 0.593750 0.687500
vt 0.593750 0.187500
vt 0.562500 0.250000
vt 0.562500 0.625000
vt 0.562500 0.187500
vt 0.593750 0.562500
vt 0.562500 0.062500
vt 0.562500 0.500000
vt 0.562500 0.937500
vt 0.578125 1.000000
vt 0.578125 0.000000
vt 0.562500 0.875000
vt 0.531250 0.062500
vt 0.562500 0.125000
vt 0.531250 0.500000
vt 0.562500 0.562500
vt 0.531250 0.937500
vt 0.546875 1.000000
vt 0.546875 0.000000
vt 0.562500 0.437500
vt 0.531250 0.875000
vt 0.531250 0.375000
vt 0.531250 0.812500
vt 0.562500 0.812500
vt 0.531250 0.750000
vt 0.531250 0.312500
vt 0.531250 0.687500
vt 0.562500 0.687500
vt 0.531250 0.250000
vt 0.531250 0.625000
vt 0.531250 0.125000
vt 0.500000 0.250000
vt 0.500000 0.687500
vt 0.531250 0.187500
vt 0.500000 0.625000
vt 0.500000 0.187500
vt 0.531250 0.562500
vt 0.500000 0.062500
vt 0.500000 0.500000
vt 0.500000 0.937500
vt 0.515625 1.000000
vt 0.515625 0.000000
vt 0.531250 0.437500
vt 0.500000 0.875000
vt 0.500000 0.375000
vt 0.500000 0.750000
vt 0.468750 0.937500
vt 0.484374 1.000000
vt 0.484375 0.000000
vt 0.468750 0.062500
vt 0.468750 0.437500
vt 0.500000 0.437500
vt 0.468750 0.875000
vt 0.468750 0.375000
vt 0.468750 0.812500
vt 0.500000 0.812500
vt 0.500000 0.312500
vt 0.468750 0.750000
vt 0.468750 0.250000
vt 0.468750 0.625000
vt 0.468750 0.125000
vt 0.500000 0.125000
vt 0.500000 0.562500
vt 0.468750 0.562500
vt 0.437500 0.687500
vt 0.468750 0.687500
vt 0.468750 0.187500
vt 0.437500 0.250000
vt 0.437500 0.625000
vt 0.437500 0.187500
vt 0.437500 0.562500
vt 0.437500 0.125000
vt 0.437500 0.500000
vt 0.468750 0.500000
vt 0.437500 0.937500
vt 0.453124 1.000000
vt 0.453125 0.000000
vt 0.437500 0.062500
vt 0.437500 0.437500
vt 0.437500 0.875000
vt 0.437500 0.375000
vt 0.437500 0.812500
vt 0.468750 0.312500
vt 0.437500 0.750000
vt 0.437500 0.312500
vt 0.406250 0.437500
vt 0.406250 0.875000
vt 0.406250 0.375000
vt 0.406250 0.812500
vt 0.406250 0.250000
vt 0.406250 0.750000
vt 0.406250 0.625000
vt 0.406250 0.125000
vt 0.406250 0.062500
vt 0.406250 0.500000
vt 0.406250 0.937500
vt 0.421874 1.000000
vt 0.421875 0.000000
vt 0.406250 0.187500
vt 0.375000 0.250000
vt 0.375000 0.625000
vt 0.406250 0.687500
vt 0.375000 0.125000
vt 0.406250 0.562500
vt 0.375000 0.562500
vt 0.375000 0.937500
vt 0.390625 1.000000
vt 0.390625 0.000000
vt 0.375000 0.062500
vt 0.375000 0.437500
vt 0.375000 0.875000
vt 0.375000 0.375000
vt 0.375000 0.812500
vt 0.406250 0.312500
vt 0.375000 0.750000
vt 0.343750 0.875000
vt 0.343750 0.375000
vt 0.375000 0.312500
vt 0.343750 0.750000
vt 0.343750 0.250000
vt 0.375000 0.687500
vt 0.375000 0.187500
vt 0.343750 0.625000
vt 0.343750 0.187500
vt 0.343750 0.125000
vt 0.375000 0.500000
vt 0.343750 0.562500
vt 0.343750 0.937500
vt 0.359375 1.000000
vt 0.359375 0.000000
vt 0.343750 0.062500
vt 0.343750 0.437500
vt 0.312500 0.625000
vt 0.343750 0.687500
vt 0.312500 0.125000
vt 0.312500 0.062500
vt 0.343750 0.500000
vt 0.312500 0.562500
vt 0.312500 0.937500
vt 0.328125 1.000000
vt 0.328125 0.000000
vt 0.312500 0.437500
vt 0.312500 0.875000
vt 0.312500 0.375000
vt 0.343750 0.812500
vt 0.343750 0.312500
vt 0.312500 0.750000
vt 0.312500 0.250000
vt 0.312500 0.687500
vt 0.312500 0.187500
vt 0.281250 0.375000
vt 0.281250 0.812500
vt 0.312500 0.812500
vt 0.312500 0.312500
vt 0.281250 0.250000
vt 0.281250 0.750000
vt 0.281250 0.187500
vt 0.281250 0.625000
vt 0.281250 0.125000
vt 0.281250 0.062500
vt 0.312500 0.500000
vt 0.281250 0.562500
vt 0.281250 0.937500
vt 0.296875 1.000000
vt 0.296875 0.000000
vt 0.281250 0.437500
vt 0.281250 0.875000
vt 0.250000 0.187500
vt 0.250000 0.625000
vt 0.250000 0.125000
vt 0.250000 0.500000
vt 0.281250 0.500000
vt 0.250000 0.937500
vt 0.265625 1.000000
vt 0.265625 0.000000
vt 0.250000 0.062500
vt 0.250000 0.375000
vt 0.250000 0.812500
vt 0.281250 0.312500
vt 0.250000 0.750000
vt 0.250000 0.312500
vt 0.250000 0.687500
vt 0.281250 0.687500
vt 0.250000 0.250000
vt 0.218750 0.375000
vt 0.218750 0.812500
vt 0.218750 0.250000
vt 0.218750 0.687500
vt 0.218750 0.187500
vt 0.218750 0.625000
vt 0.218750 0.125000
vt 0.250000 0.562500
vt 0.218750 0.062500
vt 0.218750 0.500000
vt 0.218750 0.937500
vt 0.234375 1.000000
vt 0.234375 0.000000
vt 0.250000 0.437500
vt 0.218750 0.875000
vt 0.250000 0.875000
vt 0.187500 0.125000
vt 0.187500 0.500000
vt 0.218750 0.562500
vt 0.187500 0.937500
vt 0.203125 1.000000
vt 0.203125 0.000000
vt 0.187500 0.062500
vt 0.187500 0.437500
vt 0.218750 0.437500
vt 0.187500 0.875000
vt 0.187500 0.375000
vt 0.187500 0.812500
vt 0.218750 0.312500
vt 0.218750 0.750000
vt 0.187500 0.250000
vt 0.187500 0.750000
vt 0.187500 0.625000
vt 0.187500 0.187500
vt 0.156250 0.812500
vt 0.156250 0.250000
vt 0.187500 0.312500
vt 0.156250 0.687500
vt 0.187500 0.687500
vt 0.156250 0.625000
vt 0.156250 0.125000
vt 0.187500 0.562500
vt 0.156250 0.562500
vt 0.156250 0.937500
vt 0.171875 1.000000
vt 0.171875 0.000000
vt 0.156250 0.062500
vt 0.156250 0.437500
vt 0.156250 0.875000
vt 0.156250 0.375000
vt 0.125000 0.500000
vt 0.156250 0.500000
vt 0.125000 0.937500
vt 0.140625 1.000000
vt 0.140625 0.000000
vt 0.125000 0.062500
vt 0.125000 0.437500
vt 0.125000 0.875000
vt 0.125000 0.375000
vt 0.125000 0.812500
vt 0.156250 0.312500
vt 0.156250 0.750000
vt 0.125000 0.250000
vt 0.125000 0.750000
vt 0.156250 0.187500
vt 0.125000 0.625000
vt 0.125000 0.125000
vt 0.093750 0.250000
vt 0.125000 0.312500
vt 0.093750 0.687500
vt 0.125000 0.687500
vt 0.093750 0.187500
vt 0.125000 0.187500
vt 0.093750 0.625000
vt 0.125000 0.562500
vt 0.093750 0.125000
vt 0.093750 0.562500
vt 0.093750 0.937500
vt 0.109375 1.000000
vt 0.109375 0.000000
vt 0.093750 0.062500
vt 0.093750 0.437500
vt 0.093750 0.875000
vt 0.093750 0.375000
vt 0.093750 0.812500
vt 0.062500 0.937500
vt 0.078125 1.000000
vt 0.078125 0.000000
vt 0.062500 0.062500
vt 0.062500 0.437500
vt 0.093750 0.500000
vt 0.062500 0.875000
vt 0.062500 0.375000
vt 0.062500 0.812500
vt 0.093750 0.312500
vt 0.062500 0.750000
vt 0.093750 0.750000
vt 0.062500 0.250000
vt 0.062500 0.187500
vt 0.062500 0.625000
vt 0.062500 0.500000
vt 0.062500 0.687500
vt 0.031250 0.750000
vt 0.031250 0.250000
vt 0.031250 0.625000
vt 0.062500 0.125000
vt 0.031250 0.187500
vt 0.062500 0.562500
vt 0.031250 0.125000
vt 0.031250 0.500000
vt 0.031250 0.937500
vt 0.046875 1.000000
vt 0.046875 0.000000
vt 0.031250 0.062500
vt 0.031250 0.875000
vt 0.031250 0.375000
vt 0.031250 0.812500
vt 0.062500 0.312500
vt 0.031250 0.437500
vt 0.000000 0.500000
vt 0.000000 0.875000
vt 0.000000 0.375000
vt 0.000000 0.812500
vt 0.031250 0.312500
vt 0.000000 0.750000
vt 0.000000 0.312500
vt 0.000000 0.687500
vt 0.031250 0.687500
vt 0.000000 0.187500
vt 0.000000 0.625000
vt 0.000000 0.125000
vt 0.031250 0.562500
vt 0.000000 0.062500
vt 0.000000 0.937500
vt 0.015625 1.000000
vt 0.015625 0.000000
vt 0.968750 0.187500
vt 1.000000 0.250000
vt 1.000000 0.187500
vt 0.968750 0.625000
vt 1.000000 0.687500
vt 1.000000 0.625000
vt 1.000000 0.125000
vt 1.000000 0.562500
vt 0.968750 0.062500
vt 1.000000 0.062500
vt 0.968750 0.500000
vt 1.000000 0.500000
vt 1.000000 0.937500
vt 0.968750 0.937500
vt 0.984375 1.000000
vt 0.984375 0.000000
vt 1.000000 0.437500
vt 0.968750 0.875000
vt 1.000000 0.875000
vt 0.968750 0.375000
vt 1.000000 0.375000
vt 1.000000 0.812500
vt 1.000000 0.312500
vt 1.000000 0.750000
vt 0.968750 0.812500
vt 0.968750 0.250000
vt 0.968750 0.687500
vt 0.937500 0.375000
vt 0.968750 0.437500
vt 0.937500 0.812500
vt 0.968750 0.312500
vt 0.937500 0.750000
vt 0.968750 0.750000
vt 0.937500 0.312500
vt 0.937500 0.250000
vt 0.937500 0.625000
vt 0.968750 0.125000
vt 0.937500 0.187500
vt 0.968750 0.562500
vt 0.937500 0.062500
vt 0.937500 0.500000
vt 0.937500 0.937500
vt 0.953125 1.000000
vt 0.953125 0.000000
vt 0.906250 0.125000
vt 0.937500 0.125000
vt 0.937500 0.562500
vt 0.906250 0.625000
vt 0.906250 0.500000
vt 0.906250 0.937500
vt 0.921875 1.000000
vt 0.921875 0.000000
vt 0.906250 0.062500
vt 0.906250 0.437500
vt 0.937500 0.437500
vt 0.937500 0.875000
vt 0.906250 0.375000
vt 0.906250 0.812500
vt 0.906250 0.250000
vt 0.937500 0.687500
vt 0.906250 0.750000
vt 0.875000 0.812500
vt 0.906250 0.875000
vt 0.906250 0.312500
vt 0.875000 0.375000
vt 0.875000 0.250000
vt 0.906250 0.687500
vt 0.875000 0.750000
vt 0.875000 0.187500
vt 0.906250 0.187500
vt 0.875000 0.625000
vt 0.875000 0.125000
vt 0.906250 0.562500
vt 0.875000 0.500000
vt 0.875000 0.937500
vt 0.890625 1.000000
vt 0.890625 0.000000
vt 0.875000 0.062500
vt 0.875000 0.875000
vt 0.875000 0.562500
vt 0.843750 0.625000
vt 0.843750 0.062500
vt 0.843750 0.500000
vt 0.843750 0.937500
vt 0.859375 1.000000
vt 0.859375 0.000000
vt 0.843750 0.437500
vt 0.875000 0.437500
vt 0.843750 0.875000
vt 0.843750 0.375000
vt 0.843750 0.812500
vt 0.875000 0.312500
vt 0.843750 0.750000
vt 0.843750 0.250000
vt 0.843750 0.687500
vt 0.875000 0.687500
vt 0.843750 0.125000
vt 0.843750 0.312500
vt 0.812500 0.375000
vt 0.812500 0.750000
vt 0.812500 0.250000
vt 0.843750 0.187500
vt 0.812500 0.625000
vt 0.812500 0.125000
vt 0.843750 0.562500
vt 0.812500 0.562500
vt 0.812500 0.937500
vt 0.828125 1.000000
vt 0.828125 0.000000
vt 0.812500 0.062500
vt 0.812500 0.437500
vt 0.812500 0.812500
vt 0.781250 0.125000
vt 0.781250 0.500000
vt 0.812500 0.500000
vt 0.781250 0.937500
vt 0.796875 1.000000
vt 0.796875 0.000000
vt 0.781250 0.062500
vt 0.781250 0.437500
vt 0.781250 0.875000
vt 0.812500 0.875000
vt 0.781250 0.375000
vt 0.812500 0.312500
vt 0.781250 0.750000
vt 0.781250 0.250000
vt 0.781250 0.687500
vt 0.812500 0.687500
vt 0.812500 0.187500
vt 0.781250 0.625000
vt 0.781250 0.812500
vt 0.781250 0.312500
vt 0.781250 0.187500
vt 0.781250 0.562500
vt 0.765625 1.000000
vt 0.765625 0.000000
vt 0.000000 0.437500
vt 0.000000 0.250000
vt 0.000000 0.562500
vn -0.1626 0.5528 0.8173
vn 0.0000 0.3805 0.9248
vn 0.0000 0.5528 0.8333
vn 0.0000 -0.7041 0.7101
vn -0.1092 -0.8286 0.5490
vn 0.0000 -0.8286 0.5598
vn -0.1385 0.7041 0.6965
vn 0.0000 0.7041 0.7101
vn -0.1626 -0.5528 0.8173
vn 0.0000 -0.5528 0.8333
vn -0.1092 0.8286 0.5490
vn 0.0000 0.8286 0.5598
vn -0.1804 -0.3805 0.9070
vn 0.0000 -0.3805 0.9248
vn -0.0757 0.9217 0.3804
vn 0.0000 0.9217 0.3879
vn -0.1914 -0.1939 0.9622
vn 0.0000 -0.1939 0.9810
vn -0.0392 0.9796 0.1971
vn 0.0000 0.9796 0.2010
vn -0.1951 -0.0000 0.9808
vn 0.0000 -0.0000 1.0000
vn 0.0000 -0.9796 0.2010
vn -0.0392 -0.9796 0.1971
vn 0.0000 -1.0000 -0.0000
vn 0.0000 1.0000 0.0000
vn 0.0000 0.1939 0.9810
vn 0.0000 -0.9217 0.3879
vn -0.1804 0.3805 0.9070
vn -0.0757 -0.9217 0.3804
vn -0.3539 0.3805 0.8544
vn -0.1914 0.1939 0.9622
vn -0.2142 -0.8286 0.5172
vn -0.2718 -0.7041 0.6561
vn -0.1385 -0.7041 0.6965
vn -0.3189 0.5528 0.7699
vn -0.3189 -0.5528 0.7699
vn -0.2718 0.7041 0.6561
vn -0.2142 0.8286 0.5172
vn -0.3539 -0.3805 0.8544
vn -0.1484 0.9217 0.3584
vn -0.3827 -0.0000 0.9239
vn -0.0769 -0.9796 0.1857
vn -0.0769 0.9796 0.1857
vn -0.3754 0.1939 0.9063
vn -0.1484 -0.9217 0.3584
vn -0.2155 0.9217 0.3225
vn -0.3754 -0.1939 0.9063
vn -0.5138 -0.3805 0.7689
vn -0.5556 -0.0000 0.8315
vn -0.1117 -0.9796 0.1671
vn -0.1117 0.9796 0.1671
vn -0.2155 -0.9217 0.3225
vn -0.5138 0.3805 0.7689
vn -0.3945 -0.7041 0.5905
vn -0.4630 0.5528 0.6929
vn -0.4630 -0.5528 0.6929
vn -0.3110 0.8286 0.4654
vn -0.3110 -0.8286 0.4654
vn -0.2743 -0.9217 0.2743
vn -0.6539 0.3805 0.6539
vn -0.5021 -0.7041 0.5021
vn -0.5021 0.7041 0.5021
vn -0.3945 0.7041 0.5905
vn -0.5893 -0.5528 0.5893
vn -0.6539 -0.3805 0.6539
vn -0.2743 0.9217 0.2743
vn -0.6937 -0.1939 0.6937
vn -0.5450 -0.1939 0.8157
vn -0.1421 0.9796 0.1421
vn -0.1421 -0.9796 0.1421
vn -0.6937 0.1939 0.6937
vn -0.5450 0.1939 0.8157
vn -0.7689 -0.3805 0.5138
vn -0.1671 0.9796 0.1117
vn -0.8315 -0.0000 0.5556
vn -0.7071 -0.0000 0.7071
vn -0.1671 -0.9796 0.1117
vn -0.8157 0.1939 0.5450
vn -0.3225 -0.9217 0.2155
vn -0.7689 0.3805 0.5138
vn -0.3958 -0.8286 0.3958
vn -0.5893 0.5528 0.5893
vn -0.5905 -0.7041 0.3945
vn -0.5905 0.7041 0.3945
vn -0.3958 0.8286 0.3958
vn -0.3225 0.9217 0.2155
vn -0.6929 0.5528 0.4630
vn -0.8544 0.3805 0.3539
vn -0.6561 -0.7041 0.2718
vn -0.4654 -0.8286 0.3110
vn -0.7699 0.5528 0.3189
vn -0.6929 -0.5528 0.4630
vn -0.4654 0.8286 0.3110
vn -0.6561 0.7041 0.2718
vn -0.8544 -0.3805 0.3539
vn -0.5172 0.8286 0.2142
vn -0.8157 -0.1939 0.5450
vn -0.1857 0.9796 0.0769
vn -0.9239 -0.0000 0.3827
vn -0.1857 -0.9796 0.0769
vn -0.3584 -0.9217 0.1484
vn -0.1971 0.9796 0.0392
vn -0.3584 0.9217 0.1484
vn -0.9808 -0.0000 0.1951
vn -0.9063 -0.1939 0.3754
vn -0.1971 -0.9796 0.0392
vn -0.9063 0.1939 0.3754
vn -0.3804 -0.9217 0.0757
vn -0.9070 0.3805 0.1804
vn -0.5490 -0.8286 0.1092
vn -0.5172 -0.8286 0.2142
vn -0.6965 -0.7041 0.1385
vn -0.8173 0.5528 0.1626
vn -0.8173 -0.5528 0.1626
vn -0.7699 -0.5528 0.3189
vn -0.6965 0.7041 0.1385
vn -0.9070 -0.3805 0.1804
vn -0.3804 0.9217 0.0757
vn -0.7101 0.7041 -0.0000
vn -0.8333 -0.5528 -0.0000
vn -0.5490 0.8286 0.1092
vn -0.9248 -0.3805 -0.0000
vn -0.5598 0.8286 -0.0000
vn -0.9622 -0.1939 0.1914
vn -0.2010 0.9796 -0.0000
vn -1.0000 -0.0000 -0.0000
vn -0.2010 -0.9796 -0.0000
vn -0.9622 0.1939 0.1914
vn -0.3879 -0.9217 -0.0000
vn -0.9248 0.3805 0.0000
vn -0.7101 -0.7041 0.0000
vn -0.1971 -0.9796 -0.0392
vn -0.1971 0.9796 -0.0392
vn -0.9622 0.1939 -0.1914
vn -0.9810 0.1939 -0.0000
vn -0.3804 -0.9217 -0.0757
vn -0.9070 0.3805 -0.1804
vn -0.5490 -0.8286 -0.1092
vn -0.5598 -0.8286 0.0000
vn -0.8333 0.5528 -0.0000
vn -0.6965 -0.7041 -0.1385
vn -0.6965 0.7041 -0.1385
vn -0.9070 -0.3805 -0.1804
vn -0.3804 0.9217 -0.0757
vn -0.3879 0.9217 0.0000
vn -0.9810 -0.1939 -0.0000
vn -0.9622 -0.1939 -0.1914
vn -0.7699 -0.5528 -0.3189
vn -0.8173 -0.5528 -0.1626
vn -0.5490 0.8286 -0.1092
vn -0.6561 0.7041 -0.2718
vn -0.8544 -0.3805 -0.3539
vn -0.5172 0.8286 -0.2142
vn -0.9063 -0.1939 -0.3754
vn -0.3584 0.9217 -0.1484
vn -0.9239 0.0000 -0.3827
vn -0.9808 0.0000 -0.1951
vn -0.1857 -0.9796 -0.0769
vn -0.1857 0.9796 -0.0769
vn -0.9063 0.1939 -0.3754
vn -0.3584 -0.9217 -0.1484
vn -0.8544 0.3805 -0.3539
vn -0.5172 -0.8286 -0.2142
vn -0.8173 0.5528 -0.1626
vn -0.6561 -0.7041 -0.2718
vn -0.7699 0.5528 -0.3189
vn -0.8157 0.1939 -0.5450
vn -0.3225 -0.9217 -0.2155
vn -0.7689 0.3805 -0.5138
vn -0.4654 -0.8286 -0.3110
vn -0.5905 0.7041 -0.3945
vn -0.5905 -0.7041 -0.3945
vn -0.7689 -0.3805 -0.5138
vn -0.3225 0.9217 -0.2155
vn -0.1671 0.9796 -0.1117
vn -0.8315 0.0000 -0.5556
vn -0.1671 -0.9796 -0.1117
vn -0.4654 0.8286 -0.3110
vn -0.5021 0.7041 -0.5021
vn -0.6539 -0.3805 -0.6539
vn -0.6929 -0.5528 -0.4630
vn -0.2743 0.9217 -0.2743
vn -0.8157 -0.1939 -0.5450
vn -0.6937 -0.1939 -0.6937
vn -0.1421 -0.9796 -0.1421
vn -0.1421 0.9796 -0.1421
vn -0.6937 0.1939 -0.6937
vn -0.2743 -0.9217 -0.2743
vn -0.6539 0.3805 -0.6539
vn -0.3958 -0.8286 -0.3958
vn -0.6929 0.5528 -0.4630
vn -0.5021 -0.7041 -0.5021
vn -0.2155 -0.9217 -0.3225
vn -0.5138 0.3805 -0.7689
vn -0.5893 0.5528 -0.5893
vn -0.3945 -0.7041 -0.5905
vn -0.3945 0.7041 -0.5905
vn -0.5893 -0.5528 -0.5893
vn -0.3958 0.8286 -0.3958
vn -0.5138 -0.3805 -0.7689
vn -0.3110 0.8286 -0.4654
vn -0.2155 0.9217 -0.3225
vn -0.7071 0.0000 -0.7071
vn -0.5450 -0.1939 -0.8157
vn -0.1117 -0.9796 -0.1671
vn -0.1117 0.9796 -0.1671
vn -0.5450 0.1939 -0.8157
vn -0.3539 -0.3805 -0.8544
vn -0.4630 -0.5528 -0.6929
vn -0.1484 0.9217 -0.3584
vn -0.0769 0.9796 -0.1857
vn -0.5556 0.0000 -0.8315
vn -0.3754 -0.1939 -0.9063
vn -0.0769 -0.9796 -0.1857
vn -0.3754 0.1939 -0.9063
vn -0.1484 -0.9217 -0.3584
vn -0.3539 0.3805 -0.8544
vn -0.3110 -0.8286 -0.4654
vn -0.4630 0.5528 -0.6929
vn -0.2718 -0.7041 -0.6561
vn -0.2718 0.7041 -0.6561
vn -0.3189 -0.5528 -0.7699
vn -0.2142 0.8286 -0.5172
vn -0.1804 0.3805 -0.9070
vn -0.1092 -0.8286 -0.5490
vn -0.2142 -0.8286 -0.5172
vn -0.3189 0.5528 -0.7699
vn -0.1385 0.7041 -0.6965
vn -0.1385 -0.7041 -0.6965
vn -0.1092 0.8286 -0.5490
vn -0.1804 -0.3805 -0.9070
vn -0.0757 0.9217 -0.3804
vn -0.0392 0.9796 -0.1971
vn -0.3827 0.0000 -0.9239
vn -0.1914 -0.1939 -0.9622
vn -0.0392 -0.9796 -0.1971
vn -0.1914 0.1939 -0.9622
vn -0.0757 -0.9217 -0.3804
vn 0.0000 0.8286 -0.5598
vn -0.0000 -0.3805 -0.9248
vn 0.0000 0.9217 -0.3879
vn 0.0000 -0.0000 -1.0000
vn -0.1951 -0.0000 -0.9808
vn 0.0000 -0.9796 -0.2010
vn 0.0000 0.9796 -0.2010
vn 0.0000 0.3805 -0.9248
vn 0.0000 -0.8286 -0.5598
vn -0.1626 0.5528 -0.8173
vn 0.0000 -0.7041 -0.7101
vn 0.0000 0.5528 -0.8333
vn 0.0000 -0.5528 -0.8333
vn -0.1626 -0.5528 -0.8173
vn 0.0000 0.7041 -0.7101
vn 0.1804 0.3805 -0.9070
vn 0.1092 -0.8286 -0.5490
vn 0.1385 0.7041 -0.6965
vn 0.1626 -0.5528 -0.8173
vn 0.1092 0.8286 -0.5490
vn 0.1804 -0.3805 -0.9070
vn 0.0757 0.9217 -0.3804
vn 0.0000 -0.1939 -0.9810
vn 0.0392 0.9796 -0.1971
vn 0.1951 -0.0000 -0.9808
vn 0.0392 -0.9796 -0.1971
vn 0.0000 0.1939 -0.9810
vn 0.0757 -0.9217 -0.3804
vn 0.0000 -0.9217 -0.3879
vn 0.1484 0.9217 -0.3584
vn 0.3827 -0.0000 -0.9239
vn 0.1914 -0.1939 -0.9622
vn 0.0769 -0.9796 -0.1857
vn 0.0769 0.9796 -0.1857
vn 0.3754 0.1939 -0.9063
vn 0.1914 0.1939 -0.9622
vn 0.1484 -0.9217 -0.3584
vn 0.3539 0.3805 -0.8544
vn 0.2142 -0.8286 -0.5172
vn 0.1626 0.5528 -0.8173
vn 0.1385 -0.7041 -0.6965
vn 0.2718 0.7041 -0.6561
vn 0.2718 -0.7041 -0.6561
vn 0.3539 -0.3805 -0.8544
vn 0.2142 0.8286 -0.5172
vn 0.3110 -0.8286 -0.4654
vn 0.3945 0.7041 -0.5905
vn 0.3189 0.5528 -0.7699
vn 0.4630 -0.5528 -0.6929
vn 0.3189 -0.5528 -0.7699
vn 0.5138 -0.3805 -0.7689
vn 0.2155 0.9217 -0.3225
vn 0.3754 -0.1939 -0.9063
vn 0.5450 -0.1939 -0.8157
vn 0.1117 -0.9796 -0.1671
vn 0.1117 0.9796 -0.1671
vn 0.5450 0.1939 -0.8157
vn 0.2155 -0.9217 -0.3225
vn 0.5138 0.3805 -0.7689
vn 0.7071 0.0000 -0.7071
vn 0.5556 0.0000 -0.8315
vn 0.1421 -0.9796 -0.1421
vn 0.1421 0.9796 -0.1421
vn 0.6937 0.1939 -0.6937
vn 0.2743 -0.9217 -0.2743
vn 0.6539 0.3805 -0.6539
vn 0.3958 -0.8286 -0.3958
vn 0.4630 0.5528 -0.6929
vn 0.3945 -0.7041 -0.5905
vn 0.5021 0.7041 -0.5021
vn 0.5021 -0.7041 -0.5021
vn 0.3110 0.8286 -0.4654
vn 0.6539 -0.3805 -0.6539
vn 0.2743 0.9217 -0.2743
vn 0.5905 0.7041 -0.3945
vn 0.5893 0.5528 -0.5893
vn 0.6929 -0.5528 -0.4630
vn 0.5893 -0.5528 -0.5893
vn 0.4654 0.8286 -0.3110
vn 0.3958 0.8286 -0.3958
vn 0.7689 -0.3805 -0.5138
vn 0.6937 -0.1939 -0.6937
vn 0.3225 0.9217 -0.2155
vn 0.8157 -0.1939 -0.5450
vn 0.1671 -0.9796 -0.1117
vn 0.1671 0.9796 -0.1117
vn 0.8157 0.1939 -0.5450
vn 0.3225 -0.9217 -0.2155
vn 0.7689 0.3805 -0.5138
vn 0.4654 -0.8286 -0.3110
vn 0.1857 -0.9796 -0.0769
vn 0.1857 0.9796 -0.0769
vn 0.9063 0.1939 -0.3754
vn 0.8315 0.0000 -0.5556
vn 0.3584 -0.9217 -0.1484
vn 0.8544 0.3805 -0.3539
vn 0.5172 -0.8286 -0.2142
vn 0.6929 0.5528 -0.4630
vn 0.6561 -0.7041 -0.2718
vn 0.5905 -0.7041 -0.3945
vn 0.6561 0.7041 -0.2718
vn 0.5172 0.8286 -0.2142
vn 0.8544 -0.3805 -0.3539
vn 0.9239 0.0000 -0.3827
vn 0.7699 -0.5528 -0.3189
vn 0.6965 -0.7041 -0.1385
vn 0.6965 0.7041 -0.1385
vn 0.9070 -0.3805 -0.1804
vn 0.3584 0.9217 -0.1484
vn 0.5490 0.8286 -0.1092
vn 0.9063 -0.1939 -0.3754
vn 0.3804 0.9217 -0.0757
vn 0.9808 -0.0000 -0.1951
vn 0.1971 -0.9796 -0.0392
vn 0.1971 0.9796 -0.0392
vn 0.3804 -0.9217 -0.0757
vn 0.9070 0.3805 -0.1804
vn 0.5490 -0.8286 -0.1092
vn 0.7699 0.5528 -0.3189
vn 0.9622 0.1939 -0.1914
vn 1.0000 -0.0000 0.0000
vn 0.3879 -0.9217 -0.0000
vn 0.9248 0.3805 0.0000
vn 0.5598 -0.8286 -0.0000
vn 0.8173 0.5528 -0.1626
vn 0.7101 -0.7041 0.0000
vn 0.8333 0.5528 0.0000
vn 0.8333 -0.5528 0.0000
vn 0.8173 -0.5528 -0.1626
vn 0.5598 0.8286 0.0000
vn 0.9248 -0.3805 0.0000
vn 0.3879 0.9217 0.0000
vn 0.9622 -0.1939 -0.1914
vn 0.2010 0.9796 0.0000
vn 0.2010 -0.9796 -0.0000
vn 0.5490 0.8286 0.1092
vn 0.7101 0.7041 0.0000
vn 0.9070 -0.3805 0.1804
vn 0.9810 -0.1939 0.0000
vn 0.1971 0.9796 0.0392
vn 0.9808 -0.0000 0.1951
vn 0.1971 -0.9796 0.0392
vn 0.9810 0.1939 0.0000
vn 0.3804 -0.9217 0.0757
vn 0.9070 0.3805 0.1804
vn 0.5490 -0.8286 0.1092
vn 0.6965 0.7041 0.1385
vn 0.8173 -0.5528 0.1626
vn 0.8544 0.3805 0.3539
vn 0.9622 0.1939 0.1914
vn 0.5172 -0.8286 0.2142
vn 0.8173 0.5528 0.1626
vn 0.6561 -0.7041 0.2718
vn 0.6965 -0.7041 0.1385
vn 0.7699 0.5528 0.3189
vn 0.6561 0.7041 0.2718
vn 0.8544 -0.3805 0.3539
vn 0.3804 0.9217 0.0757
vn 0.5172 0.8286 0.2142
vn 0.9622 -0.1939 0.1914
vn 0.1857 0.9796 0.0769
vn 0.9239 -0.0000 0.3827
vn 0.1857 -0.9796 0.0769
vn 0.3225 0.9217 0.2155
vn 0.3584 0.9217 0.1484
vn 0.9063 -0.1939 0.3754
vn 0.7689 -0.3805 0.5138
vn 0.8315 -0.0000 0.5556
vn 0.1671 -0.9796 0.1117
vn 0.1671 0.9796 0.1117
vn 0.8157 0.1939 0.5450
vn 0.9063 0.1939 0.3754
vn 0.3584 -0.9217 0.1484
vn 0.7689 0.3805 0.5138
vn 0.4654 -0.8286 0.3110
vn 0.5905 0.7041 0.3945
vn 0.7699 -0.5528 0.3189
vn 0.5905 -0.7041 0.3945
vn 0.3958 -0.8286 0.3958
vn 0.3225 -0.9217 0.2155
vn 0.6929 0.5528 0.4630
vn 0.6539 0.3805 0.6539
vn 0.5021 0.7041 0.5021
vn 0.6929 -0.5528 0.4630
vn 0.5021 -0.7041 0.5021
vn 0.3958 0.8286 0.3958
vn 0.4654 0.8286 0.3110
vn 0.6539 -0.3805 0.6539
vn 0.2743 0.9217 0.2743
vn 0.8157 -0.1939 0.5450
vn 0.7071 -0.0000 0.7071
vn 0.1421 -0.9796 0.1421
vn 0.1421 0.9796 0.1421
vn 0.2743 -0.9217 0.2743
vn 0.6937 -0.1939 0.6937
vn 0.5138 -0.3805 0.7689
vn 0.1117 0.9796 0.1671
vn 0.5556 -0.0000 0.8315
vn 0.1117 -0.9796 0.1671
vn 0.5450 0.1939 0.8157
vn 0.6937 0.1939 0.6937
vn 0.2155 -0.9217 0.3225
vn 0.5138 0.3805 0.7689
vn 0.3110 -0.8286 0.4654
vn 0.5893 0.5528 0.5893
vn 0.3945 -0.7041 0.5905
vn 0.3945 0.7041 0.5905
vn 0.4630 -0.5528 0.6929
vn 0.5893 -0.5528 0.5893
vn 0.2155 0.9217 0.3225
vn 0.4630 0.5528 0.6929
vn 0.3539 0.3805 0.8544
vn 0.2718 -0.7041 0.6561
vn 0.2718 0.7041 0.6561
vn 0.3110 0.8286 0.4654
vn 0.3539 -0.3805 0.8544
vn 0.1484 0.9217 0.3584
vn 0.5450 -0.1939 0.8157
vn 0.3754 -0.1939 0.9063
vn 0.0769 -0.9796 0.1857
vn 0.0769 0.9796 0.1857
vn 0.3754 0.1939 0.9063
vn 0.2142 -0.8286 0.5172
vn 0.0757 0.9217 0.3804
vn 0.1951 -0.0000 0.9808
vn 0.3827 -0.0000 0.9239
vn 0.0392 -0.9796 0.1971
vn 0.0392 0.9796 0.1971
vn 0.1914 0.1939 0.9622
vn 0.0757 -0.9217 0.3804
vn 0.1484 -0.9217 0.3584
vn 0.1804 0.3805 0.9070
vn 0.3189 0.5528 0.7699
vn 0.1385 -0.7041 0.6965
vn 0.1385 0.7041 0.6965
vn 0.1626 -0.5528 0.8173
vn 0.3189 -0.5528 0.7699
vn 0.2142 0.8286 0.5172
vn 0.1804 -0.3805 0.9070
vn 0.1092 -0.8286 0.5490
vn 0.1626 0.5528 0.8173
vn 0.1092 0.8286 0.5490
vn 0.1914 -0.1939 0.9622
usemtl None
s 1
f 2/1/1 4/2/2 1/3/3
f 5/4/4 7/5/5 8/6/6
f 10/7/7 1/3/3 9/8/8
f 12/9/9 5/4/4 11/10/10
f 14/11/11 9/8/8 13/12/12
f 16/13/13 11/10/10 15/14/14
f 18/15/15 13/12/12 17/16/16
f 20/17/17 15/14/14 19/18/18
f 22/19/19 17/16/16 21/20/20
f 24/21/21 19/18/18 23/22/22
f 25/23/23 26/24/24 27/25/25
f 28/26/26 22/19/19 21/20/20
f 29/27/27 24/21/21 23/22/22
f 31/28/28 26/24/24 25/23/23
f 3/29/29 29/27/27 4/2/2
f 8/6/6 32/30/30 31/28/28
f 33/31/31 30/32/32 3/29/29
f 35/33/33 32/30/30 7/5/5
f 2/1/1 33/31/31 3/29/29
f 38/34/34 7/5/5 6/35/35
f 10/7/7 37/36/36 2/1/1
f 40/37/37 6/35/35 12/9/9
f 14/11/11 39/38/38 10/7/7
f 16/13/13 40/37/37 12/9/9
f 18/15/15 41/39/39 14/11/11
f 20/17/17 42/40/40 16/13/13
f 22/19/19 43/41/41 18/15/15
f 46/42/42 20/17/17 24/21/21
f 26/24/24 47/43/43 27/44/25
f 28/45/26 45/46/44 22/19/19
f 34/47/45 24/21/21 30/32/32
f 36/48/46 26/24/24 32/30/30
f 48/49/47 41/39/39 43/41/41
f 44/50/48 51/51/49 42/40/40
f 45/46/44 48/49/47 43/41/41
f 53/52/50 44/50/48 46/42/42
f 47/43/43 54/53/51 27/54/25
f 28/55/26 52/56/52 45/46/44
f 34/47/45 53/52/50 46/42/42
f 56/57/53 47/43/43 36/48/46
f 57/58/54 34/47/45 33/31/31
f 35/33/33 56/57/53 36/48/46
f 37/36/36 57/58/54 33/31/31
f 60/59/55 35/33/33 38/34/34
f 39/38/38 59/60/56 37/36/36
f 62/61/57 38/34/34 40/37/37
f 49/62/58 39/38/38 41/39/39
f 51/51/49 40/37/37 42/40/40
f 58/63/59 64/64/60 56/57/53
f 59/60/56 66/65/61 57/58/54
f 67/66/62 58/63/59 60/59/55
f 68/67/63 59/60/56 61/68/64
f 69/69/65 60/59/55 62/61/57
f 49/62/58 68/67/63 61/68/64
f 71/70/66 62/61/57 51/51/49
f 72/71/67 49/62/58 48/49/47
f 73/72/68 51/51/49 50/73/69
f 74/74/70 48/49/47 52/56/52
f 53/52/50 73/72/68 50/73/69
f 54/53/51 76/75/71 27/76/25
f 28/77/26 74/74/70 52/56/52
f 77/78/72 53/52/50 55/79/73
f 56/57/53 76/75/71 54/53/51
f 66/65/61 55/79/73 57/58/54
f 73/72/68 79/80/74 71/70/66
f 80/81/75 72/71/67 74/74/70
f 82/82/76 73/72/68 75/83/77
f 76/75/71 83/84/78 27/85/25
f 28/86/26 80/81/75 74/74/70
f 84/87/79 75/83/77 77/78/72
f 85/88/80 76/75/71 64/64/60
f 86/89/81 77/78/72 66/65/61
f 63/90/82 85/88/80 64/64/60
f 65/91/83 86/89/81 66/65/61
f 89/92/84 63/90/82 67/66/62
f 90/93/85 65/91/83 68/67/63
f 69/69/65 89/92/84 67/66/62
f 70/94/86 90/93/85 68/67/63
f 79/80/74 69/69/65 71/70/66
f 81/95/87 70/94/86 72/71/67
f 88/96/88 94/97/89 86/89/81
f 95/98/90 87/99/91 89/92/84
f 90/93/85 93/100/92 88/96/88
f 91/101/93 95/98/90 89/92/84
f 92/102/94 97/103/95 90/93/85
f 100/104/96 91/101/93 79/80/74
f 81/95/87 99/105/97 92/102/94
f 78/106/98 100/104/96 79/80/74
f 103/107/99 81/95/87 80/81/75
f 104/108/100 78/106/98 82/82/76
f 83/84/78 105/109/101 27/110/25
f 28/111/26 103/107/99 80/81/75
f 84/87/79 104/108/100 82/82/76
f 85/88/80 105/109/101 83/84/78
f 94/97/89 84/87/79 86/89/81
f 87/99/91 107/112/102 85/88/80
f 108/113/103 101/114/104 103/107/99
f 110/115/105 102/116/106 104/108/100
f 105/109/101 112/117/107 27/118/25
f 28/119/26 108/113/103 103/107/99
f 106/120/108 110/115/105 104/108/100
f 114/121/109 105/109/101 107/112/102
f 115/122/110 106/120/108 94/97/89
f 116/123/111 107/112/102 96/124/112
f 93/100/92 115/122/110 94/97/89
f 118/125/113 96/124/112 95/98/90
f 97/103/95 117/126/114 93/100/92
f 120/127/115 95/98/90 98/128/116
f 99/105/97 119/129/117 97/103/95
f 122/130/118 98/128/116 100/104/96
f 109/131/119 99/105/97 101/114/104
f 102/116/106 122/130/118 100/104/96
f 123/132/120 117/126/114 119/129/117
f 125/133/121 118/125/113 120/127/115
f 121/134/122 123/132/120 119/129/117
f 128/135/123 120/127/115 122/130/118
f 109/131/119 127/136/124 121/134/122
f 111/137/125 128/135/123 122/130/118
f 131/138/126 109/131/119 108/113/103
f 132/139/127 111/137/125 110/115/105
f 112/117/107 133/140/128 27/141/25
f 28/142/26 131/138/126 108/113/103
f 113/143/129 132/139/127 110/115/105
f 135/144/130 112/117/107 114/121/109
f 136/145/131 113/143/129 115/122/110
f 116/123/111 135/144/130 114/121/109
f 117/126/114 136/145/131 115/122/110
f 126/146/132 116/123/111 118/125/113
f 133/140/128 138/147/133 27/148/25
f 28/149/26 139/150/134 131/138/126
f 140/151/135 132/139/127 134/152/136
f 142/153/137 133/140/128 135/144/130
f 143/154/138 134/152/136 136/145/131
f 144/155/139 135/144/130 137/156/140
f 124/157/141 143/154/138 136/145/131
f 146/158/142 137/156/140 126/146/132
f 147/159/143 124/157/141 123/132/120
f 125/133/121 146/158/142 126/146/132
f 127/136/124 147/159/143 123/132/120
f 150/160/144 125/133/121 128/135/123
f 151/161/145 127/136/124 129/162/146
f 130/163/147 150/160/144 128/135/123
f 139/150/134 129/162/146 131/138/126
f 132/139/127 152/164/148 130/163/147
f 153/165/149 146/158/142 148/166/150
f 149/167/151 156/168/152 147/159/143
f 157/169/153 148/166/150 150/160/144
f 151/161/145 155/170/154 149/167/151
f 159/171/155 150/160/144 152/164/148
f 139/150/134 158/172/156 151/161/145
f 161/173/157 152/164/148 141/174/158
f 138/147/133 162/175/159 27/176/25
f 28/177/26 160/178/160 139/150/134
f 163/179/161 141/174/158 140/151/135
f 164/180/162 138/147/133 142/153/137
f 165/181/163 140/151/135 143/154/138
f 166/182/164 142/153/137 144/155/139
f 145/183/165 165/181/163 143/154/138
f 154/184/166 144/155/139 146/158/142
f 147/159/143 167/185/167 145/183/165
f 168/186/168 161/173/157 163/179/161
f 170/187/169 162/175/159 164/180/162
f 172/188/170 163/179/161 165/181/163
f 173/189/171 164/180/162 166/182/164
f 167/185/167 172/188/170 165/181/163
f 154/184/166 173/189/171 166/182/164
f 176/190/172 167/185/167 156/168/152
f 153/165/149 175/191/173 154/184/166
f 155/170/154 176/190/172 156/168/152
f 179/192/174 153/165/149 157/169/153
f 180/193/175 155/170/154 158/172/156
f 159/171/155 179/192/174 157/169/153
f 182/194/176 158/172/156 160/178/160
f 169/195/177 159/171/155 161/173/157
f 162/175/159 171/196/178 27/197/25
f 28/198/26 182/194/176 160/178/160
f 178/199/179 184/200/180 176/190/172
f 185/201/181 177/202/182 179/192/174
f 187/203/183 178/199/179 180/193/175
f 181/204/184 185/201/181 179/192/174
f 182/194/176 187/203/183 180/193/175
f 169/195/177 188/205/185 181/204/184
f 171/196/178 191/206/186 27/207/25
f 28/208/26 189/209/187 182/194/176
f 192/210/188 169/195/177 168/186/168
f 193/211/189 171/196/178 170/187/169
f 194/212/190 168/186/168 172/188/170
f 195/213/191 170/187/169 173/189/171
f 174/214/192 194/212/190 172/188/170
f 197/215/193 173/189/171 175/191/173
f 184/200/180 174/214/192 176/190/172
f 177/202/182 197/215/193 175/191/173
f 198/216/194 191/206/186 193/211/189
f 200/217/195 192/210/188 194/212/190
f 195/213/191 198/216/194 193/211/189
f 196/218/196 200/217/195 194/212/190
f 204/219/197 195/213/191 197/215/193
f 205/220/198 196/218/196 184/200/180
f 186/221/199 204/219/197 197/215/193
f 183/222/200 205/220/198 184/200/180
f 208/223/201 186/221/199 185/201/181
f 187/203/183 207/224/202 183/222/200
f 188/205/185 208/223/201 185/201/181
f 189/209/187 209/225/203 187/203/183
f 190/226/204 210/227/205 188/205/185
f 191/206/186 199/228/206 27/229/25
f 28/230/26 211/231/207 189/209/187
f 201/232/208 190/226/204 192/210/188
f 213/233/209 206/234/210 208/223/201
f 215/235/211 207/224/202 209/225/203
f 210/227/205 213/233/209 208/223/201
f 218/236/212 209/225/203 211/231/207
f 212/237/213 217/238/214 210/227/205
f 199/228/206 220/239/215 27/240/25
f 28/241/26 218/236/212 211/231/207
f 221/242/216 212/237/213 201/232/208
f 222/243/217 199/228/206 198/216/194
f 223/244/218 201/232/208 200/217/195
f 202/245/219 222/243/217 198/216/194
f 203/246/220 223/244/218 200/217/195
f 226/247/221 202/245/219 204/219/197
f 227/248/222 203/246/220 205/220/198
f 214/249/223 204/219/197 206/234/210
f 216/250/224 205/220/198 207/224/202
f 228/251/225 221/242/216 223/244/218
f 230/252/226 222/243/217 224/253/227
f 225/254/228 228/251/225 223/244/218
f 226/247/221 230/252/226 224/253/227
f 234/255/229 225/254/228 227/248/222
f 214/249/223 233/256/230 226/247/221
f 236/257/231 227/248/222 216/250/224
f 237/258/232 214/249/223 213/233/209
f 238/259/233 216/250/224 215/235/211
f 217/238/214 237/258/232 213/233/209
f 240/260/234 215/235/211 218/236/212
f 219/261/235 239/262/236 217/238/214
f 220/239/215 242/263/237 27/264/25
f 28/265/26 240/260/234 218/236/212
f 229/266/238 219/261/235 221/242/216
f 231/267/239 220/239/215 222/243/217
f 238/259/233 244/268/240 236/257/231
f 239/262/236 246/269/241 237/258/232
f 240/260/234 243/270/242 238/259/233
f 248/271/243 239/262/236 241/272/244
f 242/263/237 249/273/245 27/274/25
f 28/275/26 247/276/246 240/260/234
f 229/266/238 248/271/243 241/272/244
f 231/267/239 249/273/245 242/263/237
f 252/277/247 229/266/238 228/251/225
f 253/278/248 231/267/239 230/252/226
f 232/279/249 252/277/247 228/251/225
f 255/280/250 230/252/226 233/256/230
f 234/255/229 254/281/251 232/279/249
f 257/282/252 233/256/230 235/283/253
f 236/257/231 256/284/254 234/255/229
f 246/269/241 235/283/253 237/258/232
f 254/281/251 259/285/255 252/277/247
f 255/280/250 261/286/256 253/278/248
f 262/287/257 254/281/251 256/284/254
f 263/288/258 255/280/250 257/282/252
f 264/289/259 256/284/254 244/268/240
f 265/290/260 257/282/252 246/269/241
f 266/291/261 244/268/240 243/270/242
f 245/292/262 265/290/260 246/269/241
f 268/293/263 243/270/242 247/276/246
f 269/294/264 245/292/262 248/271/243
f 249/273/245 270/295/265 27/296/25
f 28/297/26 268/293/263 247/276/246
f 250/298/266 269/294/264 248/271/243
f 272/299/267 249/273/245 251/300/268
f 259/285/255 250/298/266 252/277/247
f 253/278/248 272/299/267 251/300/268
f 268/293/263 274/301/269 266/291/261
f 275/302/270 267/303/271 269/294/264
f 270/295/265 277/304/272 27/305/25
f 28/306/26 273/307/273 268/293/263
f 278/308/274 269/294/264 271/309/275
f 279/310/276 270/295/265 272/299/267
f 280/311/277 271/309/275 259/285/255
f 281/312/278 272/299/267 261/286/256
f 258/313/279 280/311/277 259/285/255
f 260/314/280 281/312/278 261/286/256
f 284/315/281 258/313/279 262/287/257
f 263/288/258 283/316/282 260/314/280
f 264/289/259 284/315/281 262/287/257
f 287/317/283 263/288/258 265/290/260
f 266/291/261 286/318/284 264/289/259
f 267/303/271 287/317/283 265/290/260
f 283/316/282 289/319/285 281/312/278
f 290/320/286 282/321/287 284/315/281
f 292/322/288 283/316/282 285/323/289
f 286/318/284 290/320/286 284/315/281
f 294/324/290 285/323/289 287/317/283
f 295/325/291 286/318/284 274/301/269
f 276/326/292 294/324/290 287/317/283
f 273/307/273 295/325/291 274/301/269
f 275/302/270 296/327/293 276/326/292
f 277/304/272 299/328/294 27/329/25
f 28/330/26 297/331/295 273/307/273
f 300/332/296 275/302/270 278/308/274
f 301/333/297 277/304/272 279/310/276
f 302/334/298 278/308/274 280/311/277
f 289/319/285 279/310/276 281/312/278
f 282/321/287 302/334/298 280/311/277
f 303/335/299 296/327/293 298/336/300
f 299/328/294 305/337/301 27/338/25
f 28/339/26 306/340/302 297/331/295
f 307/341/303 298/336/300 300/332/296
f 308/342/304 299/328/294 301/333/297
f 309/343/305 300/332/296 302/334/298
f 310/344/306 301/333/297 289/319/285
f 291/345/307 309/343/305 302/334/298
f 288/346/308 310/344/306 289/319/285
f 313/347/309 291/345/307 290/320/286
f 292/322/288 312/348/310 288/346/308
f 293/349/311 313/347/309 290/320/286
f 316/350/312 292/322/288 294/324/290
f 317/351/313 293/349/311 295/325/291
f 296/327/293 316/350/312 294/324/290
f 306/340/302 295/325/291 297/331/295
f 318/352/314 311/353/315 313/347/309
f 320/354/316 312/348/310 314/355/317
f 322/356/318 313/347/309 315/357/319
f 323/358/320 314/355/317 316/350/312
f 317/351/313 322/356/318 315/357/319
f 304/359/321 323/358/320 316/350/312
f 306/340/302 324/360/322 317/351/313
f 303/335/299 325/361/323 304/359/321
f 305/337/301 328/362/324 27/363/25
f 28/364/26 326/365/325 306/340/302
f 329/366/326 303/335/299 307/341/303
f 330/367/327 305/337/301 308/342/304
f 331/368/328 307/341/303 309/343/305
f 332/369/329 308/342/304 310/344/306
f 311/353/315 331/368/328 309/343/305
f 312/348/310 332/369/329 310/344/306
f 328/362/324 333/370/330 27/371/25
f 28/372/26 334/373/331 326/365/325
f 335/374/332 327/375/333 329/366/326
f 337/376/334 328/362/324 330/367/327
f 338/377/335 329/366/326 331/368/328
f 339/378/336 330/367/327 332/369/329
f 319/379/337 338/377/335 331/368/328
f 341/380/338 332/369/329 321/381/339
f 342/382/340 319/379/337 318/352/314
f 320/354/316 341/380/338 321/381/339
f 344/383/341 318/352/314 322/356/318
f 345/384/342 320/354/316 323/358/320
f 324/360/322 344/383/341 322/356/318
f 325/361/323 345/384/342 323/358/320
f 334/373/331 324/360/322 326/365/325
f 336/385/343 325/361/323 327/375/333
f 343/386/344 349/387/345 341/380/338
f 344/383/341 351/388/346 342/382/340
f 352/389/347 343/386/344 345/384/342
f 346/390/348 350/391/349 344/383/341
f 347/392/350 352/389/347 345/384/342
f 334/373/331 353/393/351 346/390/348
f 356/394/352 347/392/350 336/385/343
f 333/370/330 357/395/353 27/396/25
f 28/397/26 355/398/354 334/373/331
f 335/374/332 356/394/352 336/385/343
f 359/399/355 333/370/330 337/376/334
f 360/400/356 335/374/332 338/377/335
f 361/401/357 337/376/334 339/378/336
f 340/402/358 360/400/356 338/377/335
f 349/387/345 339/378/336 341/380/338
f 351/388/346 340/402/358 342/382/340
f 358/403/359 364/404/360 356/394/352
f 365/405/361 357/395/353 359/399/355
f 367/406/362 358/403/359 360/400/356
f 368/407/363 359/399/355 361/401/357
f 362/408/364 367/406/362 360/400/356
f 370/409/365 361/401/357 349/387/345
f 351/388/346 369/410/366 362/408/364
f 372/411/367 349/387/345 348/412/368
f 373/413/369 351/388/346 350/391/349
f 374/414/370 348/412/368 352/389/347
f 375/415/371 350/391/349 353/393/351
f 354/416/372 374/414/370 352/389/347
f 377/417/373 353/393/351 355/398/354
f 364/404/360 354/416/372 356/394/352
f 357/395/353 366/418/374 27/419/25
f 28/420/26 377/417/373 355/398/354
f 378/421/375 371/422/376 373/423/369
f 380/424/377 372/425/367 374/426/370
f 375/427/371 378/421/375 373/423/369
f 376/428/378 380/424/377 374/426/370
f 384/429/379 375/427/371 377/430/373
f 385/431/380 376/428/378 364/432/360
f 366/433/374 386/434/381 27/435/25
f 28/436/26 384/429/379 377/430/373
f 363/437/382 385/431/380 364/432/360
f 388/438/383 366/433/374 365/439/361
f 389/440/384 363/437/382 367/441/362
f 368/442/363 388/438/383 365/439/361
f 369/443/366 389/440/384 367/441/362
f 370/444/365 390/445/385 368/442/363
f 379/446/386 369/443/366 371/422/376
f 381/447/387 370/444/365 372/425/367
f 393/448/388 387/449/389 389/440/384
f 395/450/390 388/438/383 390/445/385
f 391/451/391 393/448/388 389/440/384
f 398/452/392 390/445/385 392/453/393
f 379/446/386 397/454/394 391/451/391
f 381/447/387 398/452/392 392/453/393
f 378/421/375 399/455/395 379/446/386
f 402/456/396 381/447/387 380/424/377
f 382/457/397 401/458/398 378/421/375
f 383/459/399 402/456/396 380/424/377
f 405/460/400 382/457/397 384/429/379
f 406/461/401 383/459/399 385/431/380
f 386/434/381 407/462/402 27/463/25
f 28/464/26 405/460/400 384/429/379
f 387/449/389 406/461/401 385/431/380
f 388/438/383 407/462/402 386/434/381
f 408/465/403 401/458/398 403/466/404
f 404/467/405 411/468/406 402/456/396
f 405/460/400 408/465/403 403/466/404
f 413/469/407 404/467/405 406/461/401
f 407/462/402 414/470/408 27/471/25
f 28/472/26 412/473/409 405/460/400
f 415/474/410 406/461/401 394/475/411
f 396/476/412 414/470/408 407/462/402
f 417/477/413 394/475/411 393/448/388
f 418/478/414 396/476/412 395/450/390
f 397/454/394 417/477/413 393/448/388
f 398/452/392 418/478/414 395/450/390
f 421/479/415 397/454/394 399/455/395
f 400/480/416 420/481/417 398/452/392
f 401/458/398 421/479/415 399/455/395
f 411/468/406 400/480/416 402/456/396
f 423/482/418 416/483/419 418/478/414
f 419/484/420 426/485/421 417/477/413
f 420/481/417 423/482/418 418/478/414
f 428/486/422 419/484/420 421/479/415
f 422/487/423 427/488/424 420/481/417
f 430/489/425 421/479/415 409/490/426
f 431/491/427 422/487/423 411/468/406
f 432/492/428 409/490/426 408/465/403
f 410/493/429 431/491/427 411/468/406
f 412/473/409 432/492/428 408/465/403
f 435/494/430 410/493/429 413/469/407
f 414/470/408 436/495/431 27/496/25
f 28/497/26 434/498/432 412/473/409
f 415/474/410 435/494/430 413/469/407
f 424/499/433 414/470/408 416/483/419
f 426/485/421 415/474/410 417/477/413
f 433/500/434 439/501/435 431/491/427
f 440/502/436 432/492/428 434/498/432
f 442/503/437 433/500/434 435/494/430
f 436/495/431 443/504/438 27/505/25
f 28/506/26 440/502/436 434/498/432
f 444/507/439 435/494/430 437/508/440
f 445/509/441 436/495/431 424/499/433
f 446/510/442 437/508/440 426/485/421
f 447/511/443 424/499/433 423/482/418
f 425/512/444 446/510/442 426/485/421
f 449/513/445 423/482/418 427/488/424
f 450/514/446 425/512/444 428/486/422
f 451/515/447 427/488/424 429/516/448
f 430/489/425 450/514/446 428/486/422
f 439/501/435 429/516/448 431/491/427
f 441/517/449 430/489/425 432/492/428
f 448/518/450 454/519/451 446/510/442
f 455/520/452 447/511/443 449/513/445
f 457/521/453 448/518/450 450/514/446
f 451/515/447 455/520/452 449/513/445
f 452/522/454 457/521/453 450/514/446
f 460/523/455 451/515/447 439/501/435
f 461/524/456 452/522/454 441/517/449
f 438/525/457 460/523/455 439/501/435
f 440/502/436 461/524/456 441/517/449
f 442/503/437 462/526/458 438/525/457
f 443/504/438 465/527/459 27/528/25
f 28/529/26 463/530/460 440/502/436
f 466/531/461 442/503/437 444/507/439
f 445/509/441 465/527/459 443/504/438
f 454/519/451 444/507/439 446/510/442
f 456/532/462 445/509/441 447/511/443
f 463/530/460 469/533/463 461/524/456
f 470/534/464 462/526/458 464/535/465
f 465/527/459 472/536/466 27/537/25
f 28/538/26 468/539/467 463/530/460
f 473/540/468 464/535/465 466/531/461
f 474/541/469 465/527/459 467/542/470
f 475/543/471 466/531/461 454/519/451
f 456/532/462 474/541/469 467/542/470
f 453/544/472 475/543/471 454/519/451
f 478/545/473 456/532/462 455/520/452
f 479/546/474 453/544/472 457/521/453
f 480/547/475 455/520/452 458/548/476
f 459/549/477 479/546/474 457/521/453
f 482/550/478 458/548/476 460/523/455
f 469/533/463 459/549/477 461/524/456
f 462/526/458 482/550/478 460/523/455
f 478/545/473 8/6/6 476/551/479
f 9/8/8 477/552/480 479/546/474
f 480/547/475 5/4/4 478/545/473
f 13/12/12 479/546/474 481/553/481
f 482/550/478 11/10/10 480/547/475
f 17/16/16 481/553/481 469/533/463
f 471/554/482 15/14/14 482/550/478
f 21/20/20 469/533/463 468/539/467
f 470/534/464 19/18/18 471/554/482
f 472/536/466 25/23/23 27/555/25
f 28/556/26 21/20/20 468/539/467
f 29/27/27 470/534/464 473/540/468
f 474/541/469 25/23/23 472/536/466
f 4/2/2 473/540/468 475/543/471
f 476/551/479 31/28/28 474/541/469
f 477/552/480 4/2/2 475/543/471
f 2/1/1 3/29/29 4/2/2
f 5/4/4 6/35/35 7/5/5
f 10/7/7 2/1/1 1/3/3
f 12/9/9 6/35/35 5/4/4
f 14/11/11 10/7/7 9/8/8
f 16/13/13 12/9/9 11/10/10
f 18/15/15 14/11/11 13/12/12
f 20/17/17 16/13/13 15/14/14
f 22/19/19 18/15/15 17/16/16
f 24/21/21 20/17/17 19/18/18
f 29/27/27 30/32/32 24/21/21
f 31/28/28 32/30/30 26/24/24
f 3/29/29 30/32/32 29/27/27
f 8/6/6 7/5/5 32/30/30
f 33/31/31 34/47/45 30/32/32
f 35/33/33 36/48/46 32/30/30
f 2/1/1 37/36/36 33/31/31
f 38/34/34 35/33/33 7/5/5
f 10/7/7 39/38/38 37/36/36
f 40/37/37 38/34/34 6/35/35
f 14/11/11 41/39/39 39/38/38
f 16/13/13 42/40/40 40/37/37
f 18/15/15 43/41/41 41/39/39
f 20/17/17 44/50/48 42/40/40
f 22/19/19 45/46/44 43/41/41
f 46/42/42 44/50/48 20/17/17
f 34/47/45 46/42/42 24/21/21
f 36/48/46 47/43/43 26/24/24
f 48/49/47 49/62/58 41/39/39
f 44/50/48 50/73/69 51/51/49
f 45/46/44 52/56/52 48/49/47
f 53/52/50 50/73/69 44/50/48
f 34/47/45 55/79/73 53/52/50
f 56/57/53 54/53/51 47/43/43
f 57/58/54 55/79/73 34/47/45
f 35/33/33 58/63/59 56/57/53
f 37/36/36 59/60/56 57/58/54
f 60/59/55 58/63/59 35/33/33
f 39/38/38 61/68/64 59/60/56
f 62/61/57 60/59/55 38/34/34
f 49/62/58 61/68/64 39/38/38
f 51/51/49 62/61/57 40/37/37
f 58/63/59 63/90/82 64/64/60
f 59/60/56 65/91/83 66/65/61
f 67/66/62 63/90/82 58/63/59
f 68/67/63 65/91/83 59/60/56
f 69/69/65 67/66/62 60/59/55
f 49/62/58 70/94/86 68/67/63
f 71/70/66 69/69/65 62/61/57
f 72/71/67 70/94/86 49/62/58
f 73/72/68 71/70/66 51/51/49
f 74/74/70 72/71/67 48/49/47
f 53/52/50 75/83/77 73/72/68
f 77/78/72 75/83/77 53/52/50
f 56/57/53 64/64/60 76/75/71
f 66/65/61 77/78/72 55/79/73
f 73/72/68 78/106/98 79/80/74
f 80/81/75 81/95/87 72/71/67
f 82/82/76 78/106/98 73/72/68
f 84/87/79 82/82/76 75/83/77
f 85/88/80 83/84/78 76/75/71
f 86/89/81 84/87/79 77/78/72
f 63/90/82 87/99/91 85/88/80
f 65/91/83 88/96/88 86/89/81
f 89/92/84 87/99/91 63/90/82
f 90/93/85 88/96/88 65/91/83
f 69/69/65 91/101/93 89/92/84
f 70/94/86 92/102/94 90/93/85
f 79/80/74 91/101/93 69/69/65
f 81/95/87 92/102/94 70/94/86
f 88/96/88 93/100/92 94/97/89
f 95/98/90 96/124/112 87/99/91
f 90/93/85 97/103/95 93/100/92
f 91/101/93 98/128/116 95/98/90
f 92/102/94 99/105/97 97/103/95
f 100/104/96 98/128/116 91/101/93
f 81/95/87 101/114/104 99/105/97
f 78/106/98 102/116/106 100/104/96
f 103/107/99 101/114/104 81/95/87
f 104/108/100 102/116/106 78/106/98
f 84/87/79 106/120/108 104/108/100
f 85/88/80 107/112/102 105/109/101
f 94/97/89 106/120/108 84/87/79
f 87/99/91 96/124/112 107/112/102
f 108/113/103 109/131/119 101/114/104
f 110/115/105 111/137/125 102/116/106
f 106/120/108 113/143/129 110/115/105
f 114/121/109 112/117/107 105/109/101
f 115/122/110 113/143/129 106/120/108
f 116/123/111 114/121/109 107/112/102
f 93/100/92 117/126/114 115/122/110
f 118/125/113 116/123/111 96/124/112
f 97/103/95 119/129/117 117/126/114
f 120/127/115 118/125/113 95/98/90
f 99/105/97 121/134/122 119/129/117
f 122/130/118 120/127/115 98/128/116
f 109/131/119 121/134/122 99/105/97
f 102/116/106 111/137/125 122/130/118
f 123/132/120 124/157/141 117/126/114
f 125/133/121 126/146/132 118/125/113
f 121/134/122 127/136/124 123/132/120
f 128/135/123 125/133/121 120/127/115
f 109/131/119 129/162/146 127/136/124
f 111/137/125 130/163/147 128/135/123
f 131/138/126 129/162/146 109/131/119
f 132/139/127 130/163/147 111/137/125
f 113/143/129 134/152/136 132/139/127
f 135/144/130 133/140/128 112/117/107
f 136/145/131 134/152/136 113/143/129
f 116/123/111 137/156/140 135/144/130
f 117/126/114 124/157/141 136/145/131
f 126/146/132 137/156/140 116/123/111
f 140/151/135 141/174/158 132/139/127
f 142/153/137 138/147/133 133/140/128
f 143/154/138 140/151/135 134/152/136
f 144/155/139 142/153/137 135/144/130
f 124/157/141 145/183/165 143/154/138
f 146/158/142 144/155/139 137/156/140
f 147/159/143 145/183/165 124/157/141
f 125/133/121 148/166/150 146/158/142
f 127/136/124 149/167/151 147/159/143
f 150/160/144 148/166/150 125/133/121
f 151/161/145 149/167/151 127/136/124
f 130/163/147 152/164/148 150/160/144
f 139/150/134 151/161/145 129/162/146
f 132/139/127 141/174/158 152/164/148
f 153/165/149 154/184/166 146/158/142
f 149/167/151 155/170/154 156/168/152
f 157/169/153 153/165/149 148/166/150
f 151/161/145 158/172/156 155/170/154
f 159/171/155 157/169/153 150/160/144
f 139/150/134 160/178/160 158/172/156
f 161/173/157 159/171/155 152/164/148
f 163/179/161 161/173/157 141/174/158
f 164/180/162 162/175/159 138/147/133
f 165/181/163 163/179/161 140/151/135
f 166/182/164 164/180/162 142/153/137
f 145/183/165 167/185/167 165/181/163
f 154/184/166 166/182/164 144/155/139
f 147/159/143 156/168/152 167/185/167
f 168/186/168 169/195/177 161/173/157
f 170/187/169 171/196/178 162/175/159
f 172/188/170 168/186/168 163/179/161
f 173/189/171 170/187/169 164/180/162
f 167/185/167 174/214/192 172/188/170
f 154/184/166 175/191/173 173/189/171
f 176/190/172 174/214/192 167/185/167
f 153/165/149 177/202/182 175/191/173
f 155/170/154 178/199/179 176/190/172
f 179/192/174 177/202/182 153/165/149
f 180/193/175 178/199/179 155/170/154
f 159/171/155 181/204/184 179/192/174
f 182/194/176 180/193/175 158/172/156
f 169/195/177 181/204/184 159/171/155
f 178/199/179 183/222/200 184/200/180
f 185/201/181 186/221/199 177/202/182
f 187/203/183 183/222/200 178/199/179
f 181/204/184 188/205/185 185/201/181
f 182/194/176 189/209/187 187/203/183
f 169/195/177 190/226/204 188/205/185
f 192/210/188 190/226/204 169/195/177
f 193/211/189 191/206/186 171/196/178
f 194/212/190 192/210/188 168/186/168
f 195/213/191 193/211/189 170/187/169
f 174/214/192 196/218/196 194/212/190
f 197/215/193 195/213/191 173/189/171
f 184/200/180 196/218/196 174/214/192
f 177/202/182 186/221/199 197/215/193
f 198/216/194 199/228/206 191/206/186
f 200/217/195 201/232/208 192/210/188
f 195/213/191 202/245/219 198/216/194
f 196/218/196 203/246/220 200/217/195
f 204/219/197 202/245/219 195/213/191
f 205/220/198 203/246/220 196/218/196
f 186/221/199 206/234/210 204/219/197
f 183/222/200 207/224/202 205/220/198
f 208/223/201 206/234/210 186/221/199
f 187/203/183 209/225/203 207/224/202
f 188/205/185 210/227/205 208/223/201
f 189/209/187 211/231/207 209/225/203
f 190/226/204 212/237/213 210/227/205
f 201/232/208 212/237/213 190/226/204
f 213/233/209 214/249/223 206/234/210
f 215/235/211 216/250/224 207/224/202
f 210/227/205 217/238/214 213/233/209
f 218/236/212 215/235/211 209/225/203
f 212/237/213 219/261/235 217/238/214
f 221/242/216 219/261/235 212/237/213
f 222/243/217 220/239/215 199/228/206
f 223/244/218 221/242/216 201/232/208
f 202/245/219 224/253/227 222/243/217
f 203/246/220 225/254/228 223/244/218
f 226/247/221 224/253/227 202/245/219
f 227/248/222 225/254/228 203/246/220
f 214/249/223 226/247/221 204/219/197
f 216/250/224 227/248/222 205/220/198
f 228/251/225 229/266/238 221/242/216
f 230/252/226 231/267/239 222/243/217
f 225/254/228 232/279/249 228/251/225
f 226/247/221 233/256/230 230/252/226
f 234/255/229 232/279/249 225/254/228
f 214/249/223 235/283/253 233/256/230
f 236/257/231 234/255/229 227/248/222
f 237/258/232 235/283/253 214/249/223
f 238/259/233 236/257/231 216/250/224
f 217/238/214 239/262/236 237/258/232
f 240/260/234 238/259/233 215/235/211
f 219/261/235 241/272/244 239/262/236
f 229/266/238 241/272/244 219/261/235
f 231/267/239 242/263/237 220/239/215
f 238/259/233 243/270/242 244/268/240
f 239/262/236 245/292/262 246/269/241
f 240/260/234 247/276/246 243/270/242
f 248/271/243 245/292/262 239/262/236
f 229/266/238 250/298/266 248/271/243
f 231/267/239 251/300/268 249/273/245
f 252/277/247 250/298/266 229/266/238
f 253/278/248 251/300/268 231/267/239
f 232/279/249 254/281/251 252/277/247
f 255/280/250 253/278/248 230/252/226
f 234/255/229 256/284/254 254/281/251
f 257/282/252 255/280/250 233/256/230
f 236/257/231 244/268/240 256/284/254
f 246/269/241 257/282/252 235/283/253
f 254/281/251 258/313/279 259/285/255
f 255/280/250 260/314/280 261/286/256
f 262/287/257 258/313/279 254/281/251
f 263/288/258 260/314/280 255/280/250
f 264/289/259 262/287/257 256/284/254
f 265/290/260 263/288/258 257/282/252
f 266/291/261 264/289/259 244/268/240
f 245/292/262 267/303/271 265/290/260
f 268/293/263 266/291/261 243/270/242
f 269/294/264 267/303/271 245/292/262
f 250/298/266 271/309/275 269/294/264
f 272/299/267 270/295/265 249/273/245
f 259/285/255 271/309/275 250/298/266
f 253/278/248 261/286/256 272/299/267
f 268/293/263 273/307/273 274/301/269
f 275/302/270 276/326/292 267/303/271
f 278/308/274 275/302/270 269/294/264
f 279/310/276 277/304/272 270/295/265
f 280/311/277 278/308/274 271/309/275
f 281/312/278 279/310/276 272/299/267
f 258/313/279 282/321/287 280/311/277
f 260/314/280 283/316/282 281/312/278
f 284/315/281 282/321/287 258/313/279
f 263/288/258 285/323/289 283/316/282
f 264/289/259 286/318/284 284/315/281
f 287/317/283 285/323/289 263/288/258
f 266/291/261 274/301/269 286/318/284
f 267/303/271 276/326/292 287/317/283
f 283/316/282 288/346/308 289/319/285
f 290/320/286 291/345/307 282/321/287
f 292/322/288 288/346/308 283/316/282
f 286/318/284 293/349/311 290/320/286
f 294/324/290 292/322/288 285/323/289
f 295/325/291 293/349/311 286/318/284
f 276/326/292 296/327/293 294/324/290
f 273/307/273 297/331/295 295/325/291
f 275/302/270 298/336/300 296/327/293
f 300/332/296 298/336/300 275/302/270
f 301/333/297 299/328/294 277/304/272
f 302/334/298 300/332/296 278/308/274
f 289/319/285 301/333/297 279/310/276
f 282/321/287 291/345/307 302/334/298
f 303/335/299 304/359/321 296/327/293
f 307/341/303 303/335/299 298/336/300
f 308/342/304 305/337/301 299/328/294
f 309/343/305 307/341/303 300/332/296
f 310/344/306 308/342/304 301/333/297
f 291/345/307 311/353/315 309/343/305
f 288/346/308 312/348/310 310/344/306
f 313/347/309 311/353/315 291/345/307
f 292/322/288 314/355/317 312/348/310
f 293/349/311 315/357/319 313/347/309
f 316/350/312 314/355/317 292/322/288
f 317/351/313 315/357/319 293/349/311
f 296/327/293 304/359/321 316/350/312
f 306/340/302 317/351/313 295/325/291
f 318/352/314 319/379/337 311/353/315
f 320/354/316 321/381/339 312/348/310
f 322/356/318 318/352/314 313/347/309
f 323/358/320 320/354/316 314/355/317
f 317/351/313 324/360/322 322/356/318
f 304/359/321 325/361/323 323/358/320
f 306/340/302 326/365/325 324/360/322
f 303/335/299 327/375/333 325/361/323
f 329/366/326 327/375/333 303/335/299
f 330/367/327 328/362/324 305/337/301
f 331/368/328 329/366/326 307/341/303
f 332/369/329 330/367/327 308/342/304
f 311/353/315 319/379/337 331/368/328
f 312/348/310 321/381/339 332/369/329
f 335/374/332 336/385/343 327/375/333
f 337/376/334 333/370/330 328/362/324
f 338/377/335 335/374/332 329/366/326
f 339/378/336 337/376/334 330/367/327
f 319/379/337 340/402/358 338/377/335
f 341/380/338 339/378/336 332/369/329
f 342/382/340 340/402/358 319/379/337
f 320/354/316 343/386/344 341/380/338
f 344/383/341 342/382/340 318/352/314
f 345/384/342 343/386/344 320/354/316
f 324/360/322 346/390/348 344/383/341
f 325/361/323 347/392/350 345/384/342
f 334/373/331 346/390/348 324/360/322
f 336/385/343 347/392/350 325/361/323
f 343/386/344 348/412/368 349/387/345
f 344/383/341 350/391/349 351/388/346
f 352/389/347 348/412/368 343/386/344
f 346/390/348 353/393/351 350/391/349
f 347/392/350 354/416/372 352/389/347
f 334/373/331 355/398/354 353/393/351
f 356/394/352 354/416/372 347/392/350
f 335/374/332 358/403/359 356/394/352
f 359/399/355 357/395/353 333/370/330
f 360/400/356 358/403/359 335/374/332
f 361/401/357 359/399/355 337/376/334
f 340/402/358 362/408/364 360/400/356
f 349/387/345 361/401/357 339/378/336
f 351/388/346 362/408/364 340/402/358
f 358/403/359 363/557/382 364/404/360
f 365/405/361 366/418/374 357/395/353
f 367/406/362 363/557/382 358/403/359
f 368/407/363 365/405/361 359/399/355
f 362/408/364 369/410/366 367/406/362
f 370/409/365 368/407/363 361/401/357
f 351/388/346 371/558/376 369/410/366
f 372/411/367 370/409/365 349/387/345
f 373/413/369 371/558/376 351/388/346
f 374/414/370 372/411/367 348/412/368
f 375/415/371 373/413/369 350/391/349
f 354/416/372 376/559/378 374/414/370
f 377/417/373 375/415/371 353/393/351
f 364/404/360 376/559/378 354/416/372
f 378/421/375 379/446/386 371/422/376
f 380/424/377 381/447/387 372/425/367
f 375/427/371 382/457/397 378/421/375
f 376/428/378 383/459/399 380/424/377
f 384/429/379 382/457/397 375/427/371
f 385/431/380 383/459/399 376/428/378
f 363/437/382 387/449/389 385/431/380
f 388/438/383 386/434/381 366/433/374
f 389/440/384 387/449/389 363/437/382
f 368/442/363 390/445/385 388/438/383
f 369/443/366 391/451/391 389/440/384
f 370/444/365 392/453/393 390/445/385
f 379/446/386 391/451/391 369/443/366
f 381/447/387 392/453/393 370/444/365
f 393/448/388 394/475/411 387/449/389
f 395/450/390 396/476/412 388/438/383
f 391/451/391 397/454/394 393/448/388
f 398/452/392 395/450/390 390/445/385
f 379/446/386 399/455/395 397/454/394
f 381/447/387 400/480/416 398/452/392
f 378/421/375 401/458/398 399/455/395
f 402/456/396 400/480/416 381/447/387
f 382/457/397 403/466/404 401/458/398
f 383/459/399 404/467/405 402/456/396
f 405/460/400 403/466/404 382/457/397
f 406/461/401 404/467/405 383/459/399
f 387/449/389 394/475/411 406/461/401
f 388/438/383 396/476/412 407/462/402
f 408/465/403 409/490/426 401/458/398
f 404/467/405 410/493/429 411/468/406
f 405/460/400 412/473/409 408/465/403
f 413/469/407 410/493/429 404/467/405
f 415/474/410 413/469/407 406/461/401
f 396/476/412 416/483/419 414/470/408
f 417/477/413 415/474/410 394/475/411
f 418/478/414 416/483/419 396/476/412
f 397/454/394 419/484/420 417/477/413
f 398/452/392 420/481/417 418/478/414
f 421/479/415 419/484/420 397/454/394
f 400/480/416 422/487/423 420/481/417
f 401/458/398 409/490/426 421/479/415
f 411/468/406 422/487/423 400/480/416
f 423/482/418 424/499/433 416/483/419
f 419/484/420 425/512/444 426/485/421
f 420/481/417 427/488/424 423/482/418
f 428/486/422 425/512/444 419/484/420
f 422/487/423 429/516/448 427/488/424
f 430/489/425 428/486/422 421/479/415
f 431/491/427 429/516/448 422/487/423
f 432/492/428 430/489/425 409/490/426
f 410/493/429 433/500/434 431/491/427
f 412/473/409 434/498/432 432/492/428
f 435/494/430 433/500/434 410/493/429
f 415/474/410 437/508/440 435/494/430
f 424/499/433 436/495/431 414/470/408
f 426/485/421 437/508/440 415/474/410
f 433/500/434 438/525/457 439/501/435
f 440/502/436 441/517/449 432/492/428
f 442/503/437 438/525/457 433/500/434
f 444/507/439 442/503/437 435/494/430
f 445/509/441 443/504/438 436/495/431
f 446/510/442 444/507/439 437/508/440
f 447/511/443 445/509/441 424/499/433
f 425/512/444 448/518/450 446/510/442
f 449/513/445 447/511/443 423/482/418
f 450/514/446 448/518/450 425/512/444
f 451/515/447 449/513/445 427/488/424
f 430/489/425 452/522/454 450/514/446
f 439/501/435 451/515/447 429/516/448
f 441/517/449 452/522/454 430/489/425
f 448/518/450 453/544/472 454/519/451
f 455/520/452 456/532/462 447/511/443
f 457/521/453 453/544/472 448/518/450
f 451/515/447 458/548/476 455/520/452
f 452/522/454 459/549/477 457/521/453
f 460/523/455 458/548/476 451/515/447
f 461/524/456 459/549/477 452/522/454
f 438/525/457 462/526/458 460/523/455
f 440/502/436 463/530/460 461/524/456
f 442/503/437 464/535/465 462/526/458
f 466/531/461 464/535/465 442/503/437
f 445/509/441 467/542/470 465/527/459
f 454/519/451 466/531/461 444/507/439
f 456/532/462 467/542/470 445/509/441
f 463/530/460 468/539/467 469/533/463
f 470/534/464 471/554/482 462/526/458
f 473/540/468 470/534/464 464/535/465
f 474/541/469 472/536/466 465/527/459
f 475/543/471 473/540/468 466/531/461
f 456/532/462 476/551/479 474/541/469
f 453/544/472 477/552/480 475/543/471
f 478/545/473 476/551/479 456/532/462
f 479/546/474 477/552/480 453/544/472
f 480/547/475 478/545/473 455/520/452
f 459/549/477 481/553/481 479/546/474
f 482/550/478 480/547/475 458/548/476
f 469/533/463 481/553/481 459/549/477
f 462/526/458 471/554/482 482/550/478
f 478/545/473 5/4/4 8/6/6
f 9/8/8 1/3/3 477/552/480
f 480/547/475 11/10/10 5/4/4
f 13/12/12 9/8/8 479/546/474
f 482/550/478 15/14/14 11/10/10
f 17/16/16 13/12/12 481/553/481
f 471/554/482 19/18/18 15/14/14
f 21/20/20 17/16/16 469/533/463
f 470/534/464 23/22/22 19/18/18
f 29/27/27 23/22/22 470/534/464
f 474/541/469 31/28/28 25/23/23
f 4/2/2 29/27/27 473/540/468
f 476/551/479 8/6/6 31/28/28
f 477/552/480 1/3/3 4/2/2
o Cube
v 1.000000 -1.000000 -1.000000
v 1.000000 -1.000000 1.000000
v -1.000000 -1.000000 1.000000
v -1.000000 -1.000000 -1.000000
v 1.000000 1.000000 -0.999999
v 0.999999 1.000000 1.000001
v -1.000000 1.000000 1.000000
v -1.000000 1.000000 -1.000000
vn 0.0000 -1.0000 0.0000
vn 0.0000 1.0000 0.0000
vn 1.0000 -0.0000 0.0000
vn 0.0000 -0.0000 1.0000
vn -1.0000 -0.0000 -0.0000
vn 0.0000 0.0000 -1.0000
usemtl Material
s off
f 484//483 486//483 483//483
f 490//484 488//484 487//484
f 487//485 484//485 483//485
f 488//486 485//486 484//486
f 485//487 490//487 486//487
f 483//488 490//488 487//488
f 484//483 485//483 486//483
f 490//484 489//484 488//484
f 487//485 488//485 484//485
f 488//486 489//486 485//486
f 485//487 489//487 490//487
f 483//488 486//488 490//488
